<?xml version="1.0" encoding="UTF-8" standalone="no"?>
<!-- Generator: Adobe Illustrator 23.0.1, SVG Export Plug-In . SVG Version: 6.00 Build 0)  -->

<svg
   version="1.1"
   id="Livello_1"
   x="0px"
   y="0px"
   viewBox="0 0 1919.95 1919.5"
   enable-background="new 0 0 1919.95 1786"
   xml:space="preserve"
   sodipodi:docname="microsoft-powerpoint-icon.svg"
   inkscape:version="1.3 (0e150ed6c4, 2023-07-21)"
   width="1919.95"
   height="1919.5"
   xmlns:inkscape="http://www.inkscape.org/namespaces/inkscape"
   xmlns:sodipodi="http://sodipodi.sourceforge.net/DTD/sodipodi-0.dtd"
   xmlns="http://www.w3.org/2000/svg"
   xmlns:svg="http://www.w3.org/2000/svg"
   xmlns:ns0="&amp;#38;ns_sfw;"><defs
   id="defs10" /><sodipodi:namedview
   id="namedview10"
   pagecolor="#ffffff"
   bordercolor="#000000"
   borderopacity="0.25"
   inkscape:showpageshadow="2"
   inkscape:pageopacity="0.0"
   inkscape:pagecheckerboard="0"
   inkscape:deskcolor="#d1d1d1"
   inkscape:zoom="0.30762708"
   inkscape:cx="607.87886"
   inkscape:cy="1129.6145"
   inkscape:window-width="1920"
   inkscape:window-height="991"
   inkscape:window-x="-9"
   inkscape:window-y="-9"
   inkscape:window-maximized="1"
   inkscape:current-layer="Livello_1" />&#10;<metadata
   id="metadata1">&#10;	<ns0:sfw>&#10;		<ns0:slices />&#10;		<ns0:sliceSourceBounds
   bottomLeftOrigin="true"
   height="1786"
   width="1919.95"
   x="-936.475"
   y="-869" />&#10;	</ns0:sfw>&#10;</metadata>&#10;<path
   fill="#ED6C47"
   d="M 1160.9,1049.05 1026.95,66.75 h -10.002 C 529.87195,68.172 135.37195,462.672 133.94995,949.748 v 10.002 z"
   id="path1"
   style="fill:#28283c;fill-opacity:1" />&#10;<path
   fill="#FF8F6B"
   d="m 1036.952,66.75 h -10.002 v 893 l 446.5,178.6 446.5,-178.6 V 949.748 C 1918.528,462.672 1524.028,68.172 1036.952,66.75 Z"
   id="path2"
   style="fill:#3c3c50;fill-opacity:1" />&#10;<path
   fill="#D35230"
   d="m 1919.95,959.75 v 9.823 c -1.398,487.185 -395.992,881.779 -883.177,883.177 h -19.646 C 529.94195,1851.352 135.34795,1456.758 133.94995,969.573 v -9.823 z"
   id="path3"
   style="fill:#141428;fill-opacity:1" />&#10;<path
   opacity="0.1"
   enable-background="new    "
   d="m 1071.6,505.659 v 952.831 c -0.222,33.109 -20.286,62.852 -50.901,75.458 -9.748,4.123 -20.224,6.249 -30.80905,6.251 h -645.192 c -12.502,-14.288 -24.557,-29.469 -35.72,-44.65 -113.755,-151.749 -175.176,-336.324 -175.028,-525.977 v -19.646 c -0.261,-171.062 49.733,-338.433 143.773,-481.327 9.823,-15.181 20.092,-30.362 31.255,-44.65 h 680.912 c 44.98605,0.341 81.37005,36.725 81.71005,81.71 z"
   id="path4" />&#10;<path
   opacity="0.2"
   enable-background="new    "
   d="m 1026.95,550.31 v 952.831 c 0,10.584 -2.128,21.061 -6.251,30.808 -12.606,30.615 -42.35005,50.679 -75.45905,50.901 h -559.911 c -14.127,-14.342 -27.682,-29.237 -40.632,-44.65 -12.502,-14.288 -24.557,-29.469 -35.72,-44.65 -113.755,-151.749 -175.176,-336.325 -175.028,-525.977 v -19.646 c -0.261,-171.062 49.733,-338.433 143.773,-481.327 h 667.518 c 44.986,0.34 81.37005,36.724 81.71005,81.71 z"
   id="path5" />&#10;<path
   opacity="0.2"
   enable-background="new    "
   d="m 1026.95,550.31 v 863.531 c -0.34,44.985 -36.72405,81.369 -81.70905,81.71 h -636.263 c -113.755,-151.749 -175.176,-336.325 -175.028,-525.977 v -19.646 c -0.261,-171.062 49.733,-338.433 143.773,-481.327 h 667.517 c 44.986,0.339 81.37005,36.723 81.71005,81.709 z"
   id="path6"
   style="fill:#000014;fill-opacity:1" />&#10;<path
   opacity="0.2"
   enable-background="new    "
   d="m 982.29995,550.31 v 863.531 c -0.34,44.985 -36.724,81.369 -81.709,81.71 h -591.613 c -113.755,-151.749 -175.176,-336.325 -175.028,-525.977 v -19.646 c -0.261,-171.062 49.733,-338.433 143.773,-481.327 h 622.867 c 44.986,0.339 81.37,36.723 81.71,81.709 z"
   id="path7"
   style="fill:#000014;fill-opacity:1" />&#10;<linearGradient
   id="SVGID_1_"
   gradientUnits="userSpaceOnUse"
   x1="170.6454"
   y1="1450.1008"
   x2="811.65472"
   y2="339.8992"
   gradientTransform="matrix(1,0,0,-1,0,1788)">&#10;	<stop
   offset="0"
   style="stop-color:#00ff28;stop-opacity:1;"
   id="stop7" />&#10;	<stop
   offset="0.5"
   style="stop-color:#C5401E"
   id="stop8" />&#10;	<stop
   offset="1"
   style="stop-color:#B62F14"
   id="stop9" />&#10;</linearGradient>&#10;<path
   fill="url(#SVGID_1_)"
   d="M 81.842951,468.6 H 900.45595 c 45.201,0 81.843,36.643 81.843,81.843 v 818.613 c 0,45.201 -36.643,81.844 -81.843,81.844 H 81.842951 c -45.2,0 -81.842999828125,-36.643 -81.842999828125,-81.843 V 550.443 C -4.8828125e-5,505.243 36.642951,468.6 81.842951,468.6 Z"
   id="path9"
   style="fill:#00ff00;fill-opacity:1" />&#10;<path
   fill="#FFFFFF"
   d="m 500.07995,686.894 c 53.289,-3.596 106.119,11.883 149.042,43.668 35.8,31.961 54.929,78.599 51.883,126.493 0.585,33.294 -8.287,66.071 -25.584,94.524 -17.512,27.964 -42.742,50.263 -72.646,64.207 -34.187,15.9 -71.564,23.751 -109.259,22.95 h -103.543 v 192.441 h -106.044 V 686.894 Z m -110.196,268.704 h 91.265 c 28.933,2.125 57.641,-6.438 80.683,-24.066 19.058,-18.282 29.047,-44.063 27.281,-70.413 0,-59.98 -34.857,-89.97 -104.57,-89.97 h -94.658 v 184.449 z"
   id="path10"
   style="fill:#000014;fill-opacity:1" />&#10;</svg>
