<?xml version="1.0" encoding="UTF-8" standalone="no"?>
<!-- Generator: Adobe Illustrator 23.0.1, SVG Export Plug-In . SVG Version: 6.00 Build 0)  -->

<svg
   version="1.1"
   id="Livello_1"
   x="0px"
   y="0px"
   viewBox="0 0 2289.75 2289.75"
   enable-background="new 0 0 2289.75 2130"
   xml:space="preserve"
   sodipodi:docname="microsoft-excel-icon-fr.svg"
   width="2289.75"
   height="2289.75"
   inkscape:version="1.3 (0e150ed6c4, 2023-07-21)"
   xmlns:inkscape="http://www.inkscape.org/namespaces/inkscape"
   xmlns:sodipodi="http://sodipodi.sourceforge.net/DTD/sodipodi-0.dtd"
   xmlns="http://www.w3.org/2000/svg"
   xmlns:svg="http://www.w3.org/2000/svg"
   xmlns:ns0="&amp;#38;#38;ns_sfw;"><defs
   id="defs12" /><sodipodi:namedview
   id="namedview12"
   pagecolor="#ffffff"
   bordercolor="#000000"
   borderopacity="0.25"
   inkscape:showpageshadow="2"
   inkscape:pageopacity="0.0"
   inkscape:pagecheckerboard="0"
   inkscape:deskcolor="#d1d1d1"
   inkscape:zoom="0.36478874"
   inkscape:cx="937.52894"
   inkscape:cy="1171.9112"
   inkscape:window-width="1920"
   inkscape:window-height="991"
   inkscape:window-x="-9"
   inkscape:window-y="-9"
   inkscape:window-maximized="1"
   inkscape:current-layer="Livello_1" />&#10;<metadata
   id="metadata1">&#10;	<ns0:sfw>&#10;		<ns0:slices />&#10;		<ns0:sliceSourceBounds
   bottomLeftOrigin="true"
   height="2130"
   width="2289.75"
   x="-1147.5"
   y="-1041" />&#10;	</ns0:sfw>&#10;</metadata>&#10;<path
   fill="#185C37"
   d="M 1437.75,1087.6313 532.5,915.9 v 1268.9225 c 0,57.95 43.7,104.9275 97.607,104.9275 v 0 h 1562.036 c 53.907,0 97.607,-46.9775 97.607,-104.9275 v 0 -467.51 z"
   id="path1"
   style="fill:#141428;fill-opacity:1;stroke-width:1" />&#10;<path
   fill="#21A366"
   d="M 1437.75,0 H 630.107 C 576.2,0 532.5,46.9775 532.5,104.92752 c 0,0 0,0 0,0 V 572.4375 L 1437.75,1144.875 1917,1316.6063 2289.75,1144.875 V 572.4375 Z"
   id="path2"
   style="fill:#3c3c50;fill-opacity:1;stroke-width:1" />&#10;<path
   fill="#107C41"
   d="m 532.5,572.4375 h 905.25 V 1144.875 H 532.5 Z"
   id="path3"
   style="fill:#28283c;fill-opacity:1;stroke-width:1" />&#10;<path
   opacity="0.1"
   enable-background="new    "
   d="M 1180.393,457.95 H 532.5 v 1431.0937 h 647.893 c 53.834,-0.1881 97.432,-47.0559 97.607,-104.9275 V 562.87752 c -0.175,-57.87155 -43.773,-104.7394 -97.607,-104.92752 z"
   id="path4"
   style="fill:#000014;fill-opacity:1;stroke-width:1" />&#10;<path
   opacity="0.2"
   enable-background="new    "
   d="M 1127.143,515.19375 H 532.5 V 1946.2875 h 594.643 c 53.834,-0.1881 97.432,-47.056 97.607,-104.9275 V 620.12127 c -0.175,-57.87155 -43.773,-104.7394 -97.607,-104.92752 z"
   id="path5"
   style="fill:#000014;fill-opacity:1;stroke-width:1" />&#10;<path
   opacity="0.2"
   enable-background="new    "
   d="M 1127.143,515.19375 H 532.5 V 1831.8 h 594.643 c 53.834,-0.1881 97.432,-47.056 97.607,-104.9275 V 620.12127 c -0.175,-57.87155 -43.773,-104.7394 -97.607,-104.92752 z"
   id="path6"
   style="fill:#000014;fill-opacity:1;stroke-width:1" />&#10;<path
   opacity="0.2"
   enable-background="new    "
   d="M 1073.893,515.19375 H 532.5 V 1831.8 h 541.393 c 53.834,-0.1881 97.432,-47.056 97.607,-104.9275 V 620.12127 c -0.175,-57.87155 -43.773,-104.7394 -97.607,-104.92752 z"
   id="path7"
   style="fill:#000014;fill-opacity:1;stroke-width:1" />&#10;<linearGradient
   id="SVGID_1_"
   gradientUnits="userSpaceOnUse"
   x1="203.5132"
   y1="1729.0183"
   x2="967.98682"
   y2="404.98169"
   gradientTransform="matrix(1,0,0,-1,0,2132)">&#10;	<stop
   offset="0"
   style="stop-color:#00ff00;stop-opacity:1;"
   id="stop7" />&#10;	<stop
   offset="0.49614644"
   style="stop-color:#00eb00;stop-opacity:1;"
   id="stop8" />&#10;	<stop
   offset="1"
   style="stop-color:#00af00;stop-opacity:1;"
   id="stop9" />&#10;</linearGradient>&#10;<path
   fill="url(#SVGID_1_)"
   d="m 97.607,515.19375 h 976.285 c 53.907,0 97.607,46.9775 97.607,104.92752 V 1669.6276 c 0,57.9501 -43.7,104.9276 -97.607,104.9276 H 97.607 C 43.7,1774.5562 0,1727.5788 0,1669.6287 V 620.12127 C 0,562.17125 43.7,515.19375 97.607,515.19375 Z"
   id="path9"
   style="fill:#0000ff;fill-opacity:1;stroke-width:1" />&#10;<path
   fill="#FFFFFF"
   d="M 302.3,1485.9338 507.632,1143.9021 319.5,803.75923 h 151.336 l 102.666,217.52627 c 9.479,20.6647 15.975,36.006 19.49,46.1379 h 1.331 c 6.745,-16.4862 13.845,-32.4951 21.3,-48.0278 L 725.371,803.87425 H 864.3 L 671.375,1142.0134 869.2,1485.9327 H 721.378 L 602.79,1247.1698 c -5.586,-10.1587 -10.326,-20.8292 -14.164,-31.8845 h -1.757 c -3.474,10.8307 -8.083,21.2012 -13.739,30.9117 l -122.102,239.7368 z"
   id="path10"
   style="fill:#000014;fill-opacity:1;stroke-width:1" />&#10;<path
   fill="#33C481"
   d="M 2192.143,0 H 1437.75 v 572.4375 h 852 V 104.92752 C 2289.75,46.9775 2246.05,0 2192.143,0 Z"
   id="path11"
   style="fill:#505064;fill-opacity:1;stroke-width:1" />&#10;<path
   fill="#107C41"
   d="m 1437.75,1144.875 h 852 v 572.4375 h -852 z"
   id="path12"
   style="fill:#28283c;fill-opacity:1;stroke-width:1" />&#10;</svg>
