<?xml version="1.0" encoding="UTF-8" standalone="no"?>
<!-- Generator: Adobe Illustrator 23.0.1, SVG Export Plug-In . SVG Version: 6.00 Build 0)  -->

<svg
   version="1.1"
   id="Livello_1"
   x="0px"
   y="0px"
   viewBox="0 0 1881.25 1881.25"
   enable-background="new 0 0 1881.25 1750"
   xml:space="preserve"
   sodipodi:docname="microsoft-word-icon.svg"
   width="1881.25"
   height="1881.25"
   inkscape:version="1.3 (0e150ed6c4, 2023-07-21)"
   xmlns:inkscape="http://www.inkscape.org/namespaces/inkscape"
   xmlns:sodipodi="http://sodipodi.sourceforge.net/DTD/sodipodi-0.dtd"
   xmlns="http://www.w3.org/2000/svg"
   xmlns:svg="http://www.w3.org/2000/svg"
   xmlns:ns1="&amp;#38;ns_sfw;"><defs
   id="defs11" /><sodipodi:namedview
   id="namedview11"
   pagecolor="#ffffff"
   bordercolor="#000000"
   borderopacity="0.25"
   inkscape:showpageshadow="2"
   inkscape:pageopacity="0.0"
   inkscape:pagecheckerboard="0"
   inkscape:deskcolor="#d1d1d1"
   inkscape:zoom="0.31395541"
   inkscape:cx="786.73593"
   inkscape:cy="1043.1418"
   inkscape:window-width="1920"
   inkscape:window-height="991"
   inkscape:window-x="2391"
   inkscape:window-y="-9"
   inkscape:window-maximized="1"
   inkscape:current-layer="Livello_1" />&#10;<metadata
   id="metadata1">&#10;	<ns1:sfw>&#10;		<ns1:slices />&#10;		<ns1:sliceSourceBounds
   bottomLeftOrigin="true"
   height="1750"
   width="1881.25"
   x="-938.5"
   y="-851" />&#10;	</ns1:sfw>&#10;</metadata>&#10;<path
   fill="#41a5ee"
   d="M 1801.056,0 H 517.694 C 473.404,0 437.5,38.5968 437.5,86.20855 c 0,0 0,0 0,0 V 470.3125 l 743.75,235.15625 700,-235.15625 V 86.20855 C 1881.25,38.5968 1845.346,0 1801.056,0 Z"
   id="path1"
   style="stroke-width:1;fill:#505064;fill-opacity:1"
   inkscape:label="offBlack4" />&#10;<path
   fill="#2b7cd3"
   d="M 1881.25,470.3125 H 437.5 V 940.625 l 743.75,141.0938 700,-141.0938 z"
   id="path2"
   style="stroke-width:1;fill:#3c3c50;fill-opacity:1"
   inkscape:label="offBlack3" />&#10;<path
   fill="#185abd"
   d="m 437.5,940.625 v 470.3125 l 700,94.0625 743.75,-94.0625 V 940.625 Z"
   id="path3"
   style="stroke-width:1;fill:#28283c;fill-opacity:1"
   inkscape:label="offBlack2" />&#10;<path
   fill="#103f91"
   d="m 517.694,1881.25 h 1283.363 c 44.29,0 80.194,-38.5968 80.194,-86.2085 v 0 -384.104 H 437.5 v 384.104 c 0,47.6117 35.904,86.2085 80.194,86.2085 z"
   id="path4"
   style="stroke-width:1;fill:#141428;fill-opacity:1"
   inkscape:label="offBlack1" />&#10;<path
   opacity="0.1"
   enable-background="new    "
   d="M 969.806,376.25 H 437.5 v 1175.7813 h 532.306 c 44.23,-0.1548 80.05,-38.6613 80.194,-86.2086 V 462.45855 C 1049.856,414.9113 1014.036,376.4048 969.806,376.25 Z"
   id="path5"
   style="stroke-width:1;fill:#000014;fill-opacity:1"
   inkscape:label="offBlack0" />&#10;<path
   opacity="0.2"
   enable-background="new    "
   d="M 926.056,423.28125 H 437.5 V 1599.0625 h 488.556 c 44.23,-0.1548 80.05,-38.6613 80.194,-86.2085 V 509.4898 c -0.144,-47.54725 -35.964,-86.05375 -80.194,-86.20855 z"
   id="path6"
   style="stroke-width:1;fill:#000014;fill-opacity:1"
   inkscape:label="offBlack0" />&#10;<path
   opacity="0.2"
   enable-background="new    "
   d="M 926.056,423.28125 H 437.5 V 1505 h 488.556 c 44.23,-0.1548 80.05,-38.6613 80.194,-86.2085 V 509.4898 c -0.144,-47.54725 -35.964,-86.05375 -80.194,-86.20855 z"
   id="path7"
   style="stroke-width:1;fill:#000014;fill-opacity:1"
   inkscape:label="offBlack0" />&#10;<path
   opacity="0.2"
   enable-background="new    "
   d="M 882.306,423.28125 H 437.5 V 1505 h 444.806 c 44.23,-0.1548 80.05,-38.6613 80.194,-86.2085 V 509.4898 c -0.144,-47.54725 -35.964,-86.05375 -80.194,-86.20855 z"
   id="path8"
   style="stroke-width:1;fill:#000014;fill-opacity:1"
   inkscape:label="offBlack0" />&#10;<linearGradient
   id="SVGID_1_"
   gradientUnits="userSpaceOnUse"
   x1="167.2057"
   y1="1420.9117"
   x2="795.29431"
   y2="333.08829"
   gradientTransform="matrix(1,0,0,-1.075,0,1883.4)">&#10;	<stop
   offset="0"
   style="stop-color:#2368C4"
   id="stop8" />&#10;	<stop
   offset="0.5"
   style="stop-color:#1A5DBE"
   id="stop9" />&#10;	<stop
   offset="1"
   style="stop-color:#1146AC"
   id="stop10" />&#10;</linearGradient>&#10;<path
   fill="url(#SVGID_1_)"
   d="m 80.194,423.28125 h 802.112 c 44.29,0 80.194,38.5968 80.194,86.20855 v 862.2715 c 0,47.6117 -35.904,86.2085 -80.194,86.2085 H 80.194 C 35.904,1457.9698 0,1419.373 0,1371.7613 V 509.4898 c 0,-47.61175 35.904,-86.20855 80.194,-86.20855 z"
   id="path10"
   style="fill:#00ff00;stroke-width:1;fill-opacity:1"
   inkscape:label="color0" />&#10;<path
   fill="#ffffff"
   d="m 329.088,1084.4471 c 1.575,13.3096 2.625,24.8798 3.106,34.8031 h 1.837 c 0.7,-9.4062 2.158,-20.741 4.375,-34.0033 2.217,-13.2633 4.215,-24.4724 5.994,-33.6271 l 84.35,-391.20645 h 109.069 l 87.5,385.32735 c 5.084,23.9596 8.723,48.247 10.894,72.7097 h 1.444 c 1.631,-23.7005 4.671,-47.2634 9.1,-70.5468 l 69.781,-387.67837 h 99.269 L 693.219,1220.8377 H 577.238 L 494.113,849.5725 c -2.406,-10.67583 -5.162,-24.64437 -8.181,-41.81105 -3.019,-17.16668 -4.9,-29.72375 -5.644,-37.625 h -1.444 c -0.962,9.12352 -2.844,22.6696 -5.644,40.635 -2.8,17.96647 -5.046,31.25992 -6.738,39.8825 L 388.324,1220.7431 H 270.374 L 147.131,660.41227 h 101.062 l 75.994,392.00523 c 1.707,8.0431 3.326,18.7663 4.901,32.0296 z"
   id="path11"
   style="stroke-width:1;fill:#000014;fill-opacity:1"
   inkscape:label="offBlack0" />&#10;</svg>
