<?xml version="1.0" encoding="UTF-8" standalone="no"?>
<svg
   preserveAspectRatio="xMidYMid"
   width="724"
   height="724"
   viewBox="0 0 724 724"
   version="1.1"
   id="svg5"
   sodipodi:docname="rlang-icon.svg"
   inkscape:version="1.3 (0e150ed6c4, 2023-07-21)"
   xmlns:inkscape="http://www.inkscape.org/namespaces/inkscape"
   xmlns:sodipodi="http://sodipodi.sourceforge.net/DTD/sodipodi-0.dtd"
   xmlns="http://www.w3.org/2000/svg"
   xmlns:svg="http://www.w3.org/2000/svg">
  <sodipodi:namedview
     id="namedview5"
     pagecolor="#ffffff"
     bordercolor="#000000"
     borderopacity="0.25"
     inkscape:showpageshadow="2"
     inkscape:pageopacity="0.0"
     inkscape:pagecheckerboard="0"
     inkscape:deskcolor="#d1d1d1"
     inkscape:zoom="0.9793618"
     inkscape:cx="273.64759"
     inkscape:cy="367.07578"
     inkscape:window-width="1920"
     inkscape:window-height="991"
     inkscape:window-x="-9"
     inkscape:window-y="-9"
     inkscape:window-maximized="1"
     inkscape:current-layer="svg5" />
  <defs
     id="defs4">
    <linearGradient
       id="gradientFill-1"
       x1="0.7414425"
       x2="590.86261"
       y1="3.6658268"
       y2="593.78699"
       gradientUnits="userSpaceOnUse"
       spreadMethod="pad"
       gradientTransform="matrix(1.2219423,0,0,0.81836924,0.547,83.836087)">
      <stop
         offset="0"
         stop-color="rgb(203,206,208)"
         stop-opacity="1"
         id="stop1"
         style="stop-color:#28283c;stop-opacity:1;" />
      <stop
         offset="1"
         stop-color="rgb(132,131,139)"
         stop-opacity="1"
         id="stop2"
         style="stop-color:#000014;stop-opacity:1;" />
    </linearGradient>
    <linearGradient
       id="gradientFill-2"
       x1="150.78214"
       x2="703.0675"
       y1="2.9698427"
       y2="553.44208"
       gradientUnits="userSpaceOnUse"
       spreadMethod="pad"
       gradientTransform="matrix(0.9899476,0,0,1.0101545,0.547,83.836087)">
      <stop
         offset="0"
         stop-color="rgb(39,109,195)"
         stop-opacity="1"
         id="stop3"
         style="stop-color:#00ff00;stop-opacity:1;" />
      <stop
         offset="1"
         stop-color="rgb(22,92,170)"
         stop-opacity="1"
         id="stop4"
         style="stop-color:#000014;stop-opacity:1;" />
    </linearGradient>
  </defs>
  <path
     d="m 362,569.77309 c -199.124,0 -360.547,-108.109 -360.547,-241.468 0,-133.36 161.423,-241.469003 360.547,-241.469003 199.125,0 360.547,108.109003 360.547,241.469003 0,133.359 -161.422,241.468 -360.547,241.468 z m 55.188,-388.531 c -151.352,0 -274.047,73.908 -274.047,165.078 0,91.17 122.695,165.078 274.047,165.078 151.351,0 263.046,-50.529 263.046,-165.078 0,-114.513 -111.695,-165.078 -263.046,-165.078 z"
     fill="url(#gradientFill-1)"
     fill-rule="evenodd"
     id="path4"
     style="fill:url(#gradientFill-1)" />
  <path
     d="m 550.547,460.83609 c 0,0 21.822,6.585 34.5,13 4.399,2.226 12.01,6.668 17.5,12.5 5.378,5.712 8,11.5 8,11.5 l 86,145 -139,0.062 -65,-122.062 c 0,0 -13.31,-22.869 -21.5,-29.5 -6.832,-5.531 -9.745,-7.5 -16.5,-7.5 -4.702,0 -33.026,0 -33.026,0 l 0.026,158.974 -123,0.052 v -406.088 h 247 c 0,0 112.5,2.029 112.5,109.062 0,107.033 -107.5,115 -107.5,115 z m -53.5,-135.976 -74.463,-0.048 -0.037,69.05 74.5,-0.024 c 0,0 34.5,-0.107 34.5,-35.125 0,-35.722 -34.5,-33.853 -34.5,-33.853 z"
     fill="url(#gradientFill-2)"
     fill-rule="evenodd"
     id="path5"
     style="fill:url(#gradientFill-2)" />
</svg>
