<?xml version="1.0" encoding="UTF-8" standalone="no"?>
<!-- Generator: Adobe Illustrator 22.1.0, SVG Export Plug-In . SVG Version: 6.00 Build 0)  -->

<svg
   version="1.1"
   x="0px"
   y="0px"
   viewBox="0 0 619.59998 619.59995"
   xml:space="preserve"
   id="svg14"
   sodipodi:docname="rstudio-icon.svg"
   width="619.59998"
   height="619.59998"
   inkscape:version="1.3 (0e150ed6c4, 2023-07-21)"
   xmlns:inkscape="http://www.inkscape.org/namespaces/inkscape"
   xmlns:sodipodi="http://sodipodi.sourceforge.net/DTD/sodipodi-0.dtd"
   xmlns:xlink="http://www.w3.org/1999/xlink"
   xmlns="http://www.w3.org/2000/svg"
   xmlns:svg="http://www.w3.org/2000/svg"><defs
   id="defs14"><linearGradient
     id="swatch16"
     inkscape:swatch="solid"><stop
       style="stop-color:#00ff00;stop-opacity:0.8;"
       offset="0"
       id="stop16" /></linearGradient><linearGradient
     inkscape:collect="always"
     xlink:href="#swatch16"
     id="linearGradient16"
     x1="209.5"
     y1="297.9"
     x2="458.3"
     y2="297.9"
     gradientUnits="userSpaceOnUse" /></defs><sodipodi:namedview
   id="namedview14"
   pagecolor="#ffffff"
   bordercolor="#000000"
   borderopacity="0.25"
   inkscape:showpageshadow="2"
   inkscape:pageopacity="0.0"
   inkscape:pagecheckerboard="0"
   inkscape:deskcolor="#d1d1d1"
   inkscape:zoom="0.94011395"
   inkscape:cx="289.32663"
   inkscape:cy="330.27911"
   inkscape:window-width="1920"
   inkscape:window-height="991"
   inkscape:window-x="2391"
   inkscape:window-y="-9"
   inkscape:window-maximized="1"
   inkscape:current-layer="R_Ball" />&#10;<style
   type="text/css"
   id="style1">&#10;	.st0{fill:#75AADB;}&#10;	.st1{fill:#4D4D4D;}&#10;	.st2{fill:#FFFFFF;}&#10;	.st3{fill:url(#SVGID_1_);}&#10;	.st4{fill:url(#SVGID_2_);}&#10;	.st5{fill:url(#SVGID_3_);}&#10;	.st6{fill:url(#SVGID_4_);}&#10;	.st7{fill:url(#SVGID_5_);}&#10;	.st8{fill:url(#SVGID_6_);}&#10;	.st9{fill:url(#SVGID_7_);}&#10;	.st10{fill:url(#SVGID_8_);}&#10;	.st11{fill:url(#SVGID_9_);}&#10;	.st12{fill:url(#SVGID_10_);}&#10;	.st13{opacity:0.18;fill:url(#SVGID_11_);}&#10;	.st14{opacity:0.3;}&#10;</style>&#10;&#10;&#10;&#10;&#10;<g
   id="R_Ball"
   transform="translate(-8.9000244,-3.1000061)">&#10;	<g
   id="g14">&#10;		<radialGradient
   id="SVGID_1_"
   cx="327.79639"
   cy="448.9512"
   r="309.80688"
   gradientUnits="userSpaceOnUse">&#10;			<stop
   offset="0"
   style="stop-color:#505064;stop-opacity:1;"
   id="stop1" />&#10;			<stop
   offset="0.70130002"
   style="stop-color:#28283c;stop-opacity:1;"
   id="stop2" />&#10;			<stop
   offset="1"
   style="stop-color:#000014;stop-opacity:1;"
   id="stop3" />&#10;		</radialGradient>&#10;		&#10;		&#10;		<linearGradient
   id="SVGID_2_"
   gradientUnits="userSpaceOnUse"
   x1="319.33401"
   y1="14.7268"
   x2="320.08261"
   y2="281.935">&#10;			<stop
   offset="0"
   style="stop-color:#ebebff;stop-opacity:0.82999998;"
   id="stop8" />&#10;			<stop
   offset="1"
   style="stop-color:#FFFFFF;stop-opacity:0"
   id="stop9" />&#10;		</linearGradient>&#10;		&#10;		&#10;		&#10;	</g><circle
   class="st3"
   cx="318.70001"
   cy="312.89999"
   r="309.79999"
   id="circle3"
   style="fill:url(#SVGID_1_)"
   inkscape:label="offBlack4" /><path
   class="st4"
   d="M 501.4,146.3 C 501.4,221 420,281.6 319.7,281.6 219.4,281.6 138,221 138,146.3 138,71.6 219.3,11 319.7,11 420.1,11 501.4,71.6 501.4,146.3 Z"
   id="path9"
   style="fill:url(#SVGID_2_)"
   inkscape:label="offWhite0" /><path
   class="st2"
   d="m 424.7,411.8 h 33.6 v 26.1 H 407 L 322,310.5 H 276.7 V 411.8 H 321 v 26.1 H 209.5 v -26.1 h 38.3 V 187.3 l -38.3,-4.7 v -24.7 c 14.5,3.3 27.1,5.6 42.9,5.6 23.8,0 48.1,-5.6 71.9,-5.6 46.2,0 89.1,21 89.1,72.3 0,39.7 -23.8,64.9 -60.7,75.6 z m -148,-126.5 24.3,0.5 c 59.3,0.9 82.1,-21.9 82.1,-52.3 0,-35.5 -25.7,-49.5 -58.3,-49.5 -15.4,0 -31.3,1.4 -48.1,3.3 z"
   id="path10"
   style="fill:#00ff00;fill-opacity:1"
   inkscape:label="color0" />&#10;</g>&#10;</svg>
