<?xml version="1.0" encoding="UTF-8" standalone="no"?>
<svg
   width="64"
   height="64"
   viewBox="0 0 32 32"
   version="1.1"
   id="svg4"
   sodipodi:docname="html5-icon.svg"
   inkscape:version="1.3 (0e150ed6c4, 2023-07-21)"
   xmlns:inkscape="http://www.inkscape.org/namespaces/inkscape"
   xmlns:sodipodi="http://sodipodi.sourceforge.net/DTD/sodipodi-0.dtd"
   xmlns="http://www.w3.org/2000/svg"
   xmlns:svg="http://www.w3.org/2000/svg">
  <defs
     id="defs4" />
  <sodipodi:namedview
     id="namedview4"
     pagecolor="#ffffff"
     bordercolor="#000000"
     borderopacity="0.25"
     inkscape:showpageshadow="2"
     inkscape:pageopacity="0.0"
     inkscape:pagecheckerboard="0"
     inkscape:deskcolor="#d1d1d1"
     inkscape:zoom="12.140625"
     inkscape:cx="31.958816"
     inkscape:cy="32"
     inkscape:window-width="1920"
     inkscape:window-height="991"
     inkscape:window-x="-9"
     inkscape:window-y="-9"
     inkscape:window-maximized="1"
     inkscape:current-layer="svg4" />
  <path
     d="M4.46 28.802L1.892.001h28.216l-2.57 28.797L15.982 32z"
     fill="#e44d26"
     id="path1"
     style="fill:#000014;fill-opacity:1" />
  <path
     d="M25.337 26.964l2.197-24.608H16v27.197z"
     fill="#f16529"
     id="path2"
     style="fill:#141428;fill-opacity:1" />
  <path
     d="M15.988 5.888H7.142l.953 10.682H16v-3.532h-4.674l-.323-3.617H16V5.888zM16 22.2l-.015.004-3.934-1.062-.25-2.817H8.253l.495 5.546 7.236 2 .016-.005z"
     fill="#ebebeb"
     id="path3"
     style="fill:#00ff00;fill-opacity:0.80000001" />
  <path
     d="M15.988 16.57h4.35l-.4 4.58-3.94 1.063v3.675l7.242-2.007.97-10.845H16zm8.764-9.734l.084-.948h-8.85V9.42h8.532l.07-.794z"
     fill="#fff"
     id="path4"
     style="fill:#14ff14;fill-opacity:0.80000001" />
</svg>
