<?xml version="1.0" encoding="UTF-8" standalone="no"?>
<svg
   width="64"
   height="64"
   version="1.1"
   id="svg3"
   sodipodi:docname="bigquery-icon-fr.svg"
   inkscape:version="1.3 (0e150ed6c4, 2023-07-21)"
   xmlns:inkscape="http://www.inkscape.org/namespaces/inkscape"
   xmlns:sodipodi="http://sodipodi.sourceforge.net/DTD/sodipodi-0.dtd"
   xmlns="http://www.w3.org/2000/svg"
   xmlns:svg="http://www.w3.org/2000/svg">
  <defs
     id="defs3" />
  <sodipodi:namedview
     id="namedview3"
     pagecolor="#ffffff"
     bordercolor="#000000"
     borderopacity="0.25"
     inkscape:showpageshadow="2"
     inkscape:pageopacity="0.0"
     inkscape:pagecheckerboard="0"
     inkscape:deskcolor="#d1d1d1"
     inkscape:zoom="12.140625"
     inkscape:cx="31.958816"
     inkscape:cy="31.917632"
     inkscape:window-width="1920"
     inkscape:window-height="991"
     inkscape:window-x="-9"
     inkscape:window-y="-9"
     inkscape:window-maximized="1"
     inkscape:current-layer="svg3" />
  <path
     d="M14.48 58.196L.558 34.082c-.744-1.288-.744-2.876 0-4.164L14.48 5.805c.743-1.287 2.115-2.08 3.6-2.082h27.857c1.48.007 2.845.8 3.585 2.082l13.92 24.113c.744 1.288.744 2.876 0 4.164L49.52 58.196c-.743 1.287-2.115 2.08-3.6 2.082H18.07c-1.483-.005-2.85-.798-3.593-2.082z"
     fill="#4386fa"
     id="path1"
     style="fill:#141428;fill-opacity:1" />
  <path
     d="m 40.697,24.235 c 0,0 3.87,9.283 -1.406,14.545 -5.276,5.262 -14.883,1.894 -14.883,1.894 L 43.95,60.27 h 1.984 c 1.486,-0.002 2.858,-0.796 3.6,-2.082 L 58.75,42.23 Z"
     opacity=".1"
     id="path2"
     style="opacity:1;mix-blend-mode:normal;fill:#000014;fill-opacity:1" />
  <path
     d="M45.267 43.23L41 38.953a.67.67 0 0 0-.158-.12 11.63 11.63 0 1 0-2.032 2.037.67.67 0 0 0 .113.15l4.277 4.277a.67.67 0 0 0 .947 0l1.12-1.12a.67.67 0 0 0 0-.947zM31.64 40.464a8.75 8.75 0 1 1 8.749-8.749 8.75 8.75 0 0 1-8.749 8.749zm-5.593-9.216v3.616c.557.983 1.363 1.803 2.338 2.375v-6.013zm4.375-2.998v9.772a6.45 6.45 0 0 0 2.338 0V28.25zm6.764 6.606v-2.142H34.85v4.5a6.43 6.43 0 0 0 2.338-2.368z"
     fill="#fff"
     id="path3"
     style="fill:#0000ff;fill-opacity:1" />
</svg>
