<?xml version="1.0" encoding="UTF-8" standalone="no"?>
<svg
   width="24"
   height="24"
   viewBox="0 0 24 24"
   version="1.1"
   id="svg1"
   sodipodi:docname="sql-icon.svg"
   inkscape:version="1.3 (0e150ed6c4, 2023-07-21)"
   xmlns:inkscape="http://www.inkscape.org/namespaces/inkscape"
   xmlns:sodipodi="http://sodipodi.sourceforge.net/DTD/sodipodi-0.dtd"
   xmlns:xlink="http://www.w3.org/1999/xlink"
   xmlns="http://www.w3.org/2000/svg"
   xmlns:svg="http://www.w3.org/2000/svg">
  <defs
     id="defs1">
    <linearGradient
       id="linearGradient25"
       inkscape:collect="always">
      <stop
         style="stop-color:#00ff00;stop-opacity:1;"
         offset="0"
         id="stop26" />
      <stop
         style="stop-color:#000014;stop-opacity:1;"
         offset="1"
         id="stop25" />
    </linearGradient>
    <linearGradient
       inkscape:collect="always"
       xlink:href="#linearGradient25"
       id="linearGradient26"
       x1="-5"
       y1="8.135704"
       x2="22"
       y2="8.135704"
       gradientUnits="userSpaceOnUse"
       gradientTransform="matrix(1.2,0,0,1.0175931,-2.4,0)" />
  </defs>
  <sodipodi:namedview
     id="namedview1"
     pagecolor="#ffffff"
     bordercolor="#000000"
     borderopacity="0.25"
     inkscape:showpageshadow="2"
     inkscape:pageopacity="0.0"
     inkscape:pagecheckerboard="0"
     inkscape:deskcolor="#d1d1d1"
     inkscape:zoom="16"
     inkscape:cx="0.6875"
     inkscape:cy="12.71875"
     inkscape:window-width="1920"
     inkscape:window-height="991"
     inkscape:window-x="2391"
     inkscape:window-y="-9"
     inkscape:window-maximized="1"
     inkscape:current-layer="svg1" />
  <path
     id="path4"
     style="fill:url(#linearGradient26);stroke:none;stroke-width:1;stroke-opacity:1"
     d="M 12 0 C 5.5872064 0 0 1.5889458 0 3.5488281 C 0 5.5087105 5.5872064 7.0976562 12 7.0976562 C 18.413994 7.0976562 24 5.507693 24 3.5488281 C 24 1.5889458 18.413994 2.9605918e-16 12 0 z M 0 5.2636719 L 0 7.7460938 C 0 9.7059761 5.5872064 11.294922 12 11.294922 C 18.413994 11.294922 24 9.7049585 24 7.7460938 L 24 5.2636719 C 21.098403 7.0322469 15.593996 7.5585938 12 7.5585938 C 8.3928036 7.5585938 2.8943971 7.0271589 0 5.2636719 z M 0 9.5117188 L 0 11.988281 C 0 13.948163 5.5872064 15.537109 12 15.537109 C 18.413994 15.537109 24 13.947146 24 11.988281 L 24 9.5117188 C 21.098403 11.280294 15.593996 11.806641 12 11.806641 C 8.3928036 11.806641 2.8943971 11.275206 0 9.5117188 z M 0 13.779297 L 0 16.255859 C 0 18.215741 5.5872064 19.804688 12 19.804688 C 18.413994 19.804688 24 18.214723 24 16.255859 L 24 13.779297 C 21.098403 15.547872 15.593996 16.074219 12 16.074219 C 8.3928036 16.074219 2.8943971 15.542784 0 13.779297 z M 0 17.951172 L 0 20.451172 C 0 22.410037 5.5872064 24 12 24 C 18.413994 24 24 22.410037 24 20.451172 L 24 17.951172 C 21.105603 19.714659 15.607196 20.246094 12 20.246094 C 8.4060036 20.246094 2.9015971 19.719747 0 17.951172 z "
     inkscape:label="gradient" />
</svg>
