<?xml version="1.0" encoding="UTF-8" standalone="no"?>
<!-- Created with Inkscape (http://www.inkscape.org/) -->

<svg
   width="151.21094mm"
   height="225.00021mm"
   viewBox="0 0 151.21094 225.00021"
   version="1.1"
   id="svg1"
   inkscape:version="1.3 (0e150ed6c4, 2023-07-21)"
   sodipodi:docname="j3-logo-thm-zh.svg"
   xmlns:inkscape="http://www.inkscape.org/namespaces/inkscape"
   xmlns:sodipodi="http://sodipodi.sourceforge.net/DTD/sodipodi-0.dtd"
   xmlns="http://www.w3.org/2000/svg"
   xmlns:svg="http://www.w3.org/2000/svg">
  <sodipodi:namedview
     id="namedview1"
     pagecolor="#ffffff"
     bordercolor="#000000"
     borderopacity="0.25"
     inkscape:showpageshadow="2"
     inkscape:pageopacity="0.0"
     inkscape:pagecheckerboard="0"
     inkscape:deskcolor="#d1d1d1"
     inkscape:document-units="mm"
     inkscape:zoom="0.69219276"
     inkscape:cx="290.38154"
     inkscape:cy="486.13626"
     inkscape:window-width="1920"
     inkscape:window-height="991"
     inkscape:window-x="-9"
     inkscape:window-y="-9"
     inkscape:window-maximized="1"
     inkscape:current-layer="layer1" />
  <defs
     id="defs1">
    <inkscape:path-effect
       effect="bspline"
       id="path-effect1"
       is_visible="true"
       lpeversion="1.3"
       weight="33.333333"
       steps="2"
       helper_size="0"
       apply_no_weight="true"
       apply_with_weight="true"
       only_selected="false"
       uniform="false" />
    <inkscape:path-effect
       effect="bspline"
       id="path-effect1-5"
       is_visible="true"
       lpeversion="1.3"
       weight="33.333333"
       steps="2"
       helper_size="0"
       apply_no_weight="true"
       apply_with_weight="true"
       only_selected="false"
       uniform="false" />
  </defs>
  <g
     inkscape:label="Layer 1"
     inkscape:groupmode="layer"
     id="layer1">
    <path
       id="path3"
       style="fill:#ebebff;fill-opacity:1;stroke:none;stroke-width:50;stroke-dasharray:none;stroke-dashoffset:0;stroke-opacity:1;paint-order:markers fill stroke"
       d="m 0,0 v 150.00015 a 75,75 0 0 0 75.000073,75.00007 75,75 0 0 0 75.000077,-75.00007 V 125.00012 H 113.71089 A 37.499963,37.499963 0 0 0 151.21093,87.500085 37.499963,37.499963 0 0 0 141.66112,62.500061 37.499963,37.499963 0 0 0 151.21093,37.500037 37.499963,37.499963 0 0 0 113.71089,0 H 50.000049 V 25.000024 H 67.191248 78.451542 113.71089 A 12.499988,12.499988 0 0 1 126.2109,37.500037 12.499988,12.499988 0 0 1 113.71089,50.000049 H 101.21088 50.000049 v 6.961332 18.038692 h 51.210831 12.50001 A 12.499988,12.499988 0 0 1 126.2109,87.500085 12.499988,12.499988 0 0 1 113.71089,100.0001 H 78.451542 67.191248 50.000049 v 25.00002 H 100.0001 v 25.00003 A 25,25 0 0 1 75.000073,175.00017 25,25 0 0 1 50.000049,150.00015 V 125.00012 H 38.710815 V 100.0001 H 50.000049 V 79.481453 75.000073 H 38.710815 V 50.000049 H 50.000049 V 25.000024 H 38.710815 V 0 Z"
       inkscape:label="reverseJ" />
    <path
       id="use16"
       style="fill:#ff0000;stroke:none;stroke-width:25;stroke-dasharray:none;stroke-dashoffset:0;stroke-opacity:1;paint-order:markers fill stroke;fill-opacity:1"
       d="m 50.000047,0 v 25.000024 h 17.1912 11.26029 35.259343 a 12.499988,12.499988 0 0 1 12.50001,12.500013 12.499988,12.499988 0 0 1 -12.50001,12.500012 h -12.5 -51.210833 v 25.000024 h 51.210833 12.5 a 12.499988,12.499988 0 0 1 12.50001,12.500012 12.499988,12.499988 0 0 1 -12.50001,12.500015 h -35.259343 -11.26029 -17.1912 v 25.00002 H 113.71088 A 37.499963,37.499963 0 0 0 151.21092,87.500085 37.499963,37.499963 0 0 0 141.66111,62.500061 37.499963,37.499963 0 0 0 151.21092,37.500037 37.499963,37.499963 0 0 0 113.71088,0 Z"
       inkscape:label="number3" />
  </g>
</svg>
