<?xml version="1.0" encoding="UTF-8" standalone="no"?>
<!-- Created with Inkscape (http://www.inkscape.org/) -->

<svg
   width="64"
   height="64"
   viewBox="0 0 64 64"
   id="svg3476"
   version="1.1"
   inkscape:version="1.3 (0e150ed6c4, 2023-07-21)"
   sodipodi:docname="css-icon.svg"
   xmlns:inkscape="http://www.inkscape.org/namespaces/inkscape"
   xmlns:sodipodi="http://sodipodi.sourceforge.net/DTD/sodipodi-0.dtd"
   xmlns="http://www.w3.org/2000/svg"
   xmlns:svg="http://www.w3.org/2000/svg"
   xmlns:rdf="http://www.w3.org/1999/02/22-rdf-syntax-ns#"
   xmlns:cc="http://creativecommons.org/ns#"
   xmlns:dc="http://purl.org/dc/elements/1.1/">
  <defs
     id="defs3478" />
  <sodipodi:namedview
     id="base"
     pagecolor="#ffffff"
     bordercolor="#666666"
     borderopacity="1.0"
     inkscape:pageopacity="0.0"
     inkscape:pageshadow="2"
     inkscape:zoom="4.8766667"
     inkscape:cx="-10.868079"
     inkscape:cy="26.555024"
     inkscape:document-units="px"
     inkscape:current-layer="layer1"
     showgrid="false"
     fit-margin-top="0"
     fit-margin-left="0"
     fit-margin-right="0"
     fit-margin-bottom="0"
     inkscape:window-width="1920"
     inkscape:window-height="991"
     inkscape:window-x="2391"
     inkscape:window-y="-9"
     inkscape:window-maximized="1"
     units="px"
     inkscape:showpageshadow="2"
     inkscape:pagecheckerboard="0"
     inkscape:deskcolor="#d1d1d1" />
  <metadata
     id="metadata3481">
    <rdf:RDF>
      <cc:Work
         rdf:about="">
        <dc:format>image/svg+xml</dc:format>
        <dc:type
           rdf:resource="http://purl.org/dc/dcmitype/StillImage" />
        <dc:title />
      </cc:Work>
    </rdf:RDF>
  </metadata>
  <g
     inkscape:label="Calque 1"
     inkscape:groupmode="layer"
     id="layer1"
     transform="translate(-193.633,-739.48031)">
    <polygon
       style="fill:#000014;fill-opacity:1"
       points="437.367,100.62 404.321,470.819 255.778,512 107.644,470.877 74.633,100.62 "
       id="polygon2989"
       transform="matrix(0.15557406,0,0,0.15557392,185.82204,723.82646)"
       inkscape:label="offBlack0" />
    <polygon
       style="fill:#141428;fill-opacity:1"
       points="256,480.523 376.03,447.246 404.27,130.894 256,130.894 "
       id="polygon2991"
       transform="matrix(0.15557406,0,0,0.15557392,185.82204,723.82646)"
       inkscape:label="offBlack2" />
    <polygon
       style="fill:#28ff28;fill-opacity:1"
       points="311.761,313.627 306.49,372.521 255.843,386.191 255.843,433.435 348.937,407.634 349.62,399.962 360.291,280.411 361.399,268.217 369.597,176.305 255.843,176.305 255.843,221.716 319.831,221.716 315.699,268.217 255.843,268.217 255.843,313.627 "
       id="polygon3005"
       transform="matrix(0.15557406,0,0,0.15557392,185.82204,723.82646)"
       inkscape:label="color2" />
    <path
       id="polygon2997"
       style="fill:#00eb00;fill-opacity:1"
       inkscape:label="color0"
       d="M 142.13 176.31002 L 146.26037 221.719 L 255.99759 221.719 L 255.99759 176.31002 L 255.84694 176.31002 L 142.13 176.31002 z M 150.31541 268.22021 L 154.38301 313.62919 L 255.99759 313.62919 L 255.99759 268.22021 L 150.31541 268.22021 z M 156.40425 336.3274 L 162.76929 407.63594 L 255.79672 433.46018 L 255.99759 433.39741 L 255.99759 386.1555 L 255.79672 386.20572 L 205.22796 372.54662 L 201.98895 336.3274 L 177.42017 336.3274 L 156.40425 336.3274 z "
       transform="matrix(0.15557406,0,0,0.15557392,185.82204,723.82646)" />
  </g>
</svg>
