<?xml version="1.0" encoding="UTF-8" standalone="no"?>
<!-- Created with Inkscape (http://www.inkscape.org/) -->

<svg
   width="210mm"
   height="210mm"
   viewBox="0 0 210 210"
   version="1.1"
   id="svg1"
   sodipodi:docname="css-flexbox-icon.svg"
   inkscape:version="1.3 (0e150ed6c4, 2023-07-21)"
   xmlns:inkscape="http://www.inkscape.org/namespaces/inkscape"
   xmlns:sodipodi="http://sodipodi.sourceforge.net/DTD/sodipodi-0.dtd"
   xmlns="http://www.w3.org/2000/svg"
   xmlns:svg="http://www.w3.org/2000/svg">
  <sodipodi:namedview
     id="namedview1"
     pagecolor="#ffffff"
     bordercolor="#000000"
     borderopacity="0.25"
     inkscape:showpageshadow="2"
     inkscape:pageopacity="0.0"
     inkscape:pagecheckerboard="0"
     inkscape:deskcolor="#d1d1d1"
     inkscape:document-units="mm"
     showguides="false"
     inkscape:zoom="0.9700586"
     inkscape:cx="323.69179"
     inkscape:cy="321.11462"
     inkscape:window-width="1920"
     inkscape:window-height="991"
     inkscape:window-x="2391"
     inkscape:window-y="-9"
     inkscape:window-maximized="1"
     inkscape:current-layer="layer1" />
  <defs
     id="defs1" />
  <g
     inkscape:label="Layer 1"
     inkscape:groupmode="layer"
     id="layer1">
    <rect
       style="fill:none;stroke:#000014;stroke-width:10.228;stroke-linecap:round;stroke-linejoin:round;stroke-dasharray:none;stroke-opacity:1;paint-order:markers fill stroke"
       id="rect1"
       width="199.77199"
       height="170.69246"
       x="5.1140122"
       y="20.114"
       inkscape:label="offBlackOutline" />
    <rect
       style="fill:#000014;fill-opacity:1;stroke:#000014;stroke-width:6.75155;stroke-linecap:round;stroke-linejoin:round;stroke-dasharray:none;stroke-opacity:1;paint-order:markers fill stroke"
       id="rect4"
       width="173.88448"
       height="21.537748"
       x="18.057758"
       y="33.210117"
       inkscape:label="offBlackHeader" />
    <path
       id="rect4-3"
       style="fill:#00ff00;fill-opacity:1;stroke:#00ff00;stroke-width:2.42791;stroke-linecap:round;stroke-linejoin:round;stroke-dasharray:none;stroke-opacity:1;paint-order:markers fill stroke"
       inkscape:label="colorBoxes"
       d="M 15.896187 63.62144 L 15.896187 72.572314 L 70.002962 72.572314 L 70.002962 63.62144 L 15.896187 63.62144 z M 115.04466 63.83693 L 115.04466 72.356307 L 193.88842 72.356307 L 193.88842 63.83693 L 115.04466 63.83693 z M 76.204134 95.150781 L 76.204134 103.6929 L 153.60044 103.6929 L 153.60044 95.150781 L 76.204134 95.150781 z M 15.818673 126.19385 L 15.818673 135.29975 L 62.443217 135.29975 L 62.443217 126.19385 L 15.818673 126.19385 z M 123.22194 126.42174 L 123.22194 135.07186 L 193.95354 135.07186 L 193.95354 126.42174 L 123.22194 126.42174 z M 167.35568 155.91555 L 167.35568 165.516 L 194.42844 165.516 L 194.42844 155.91555 L 167.35568 155.91555 z M 52.129118 172.11818 L 52.129118 180.63807 L 130.97288 180.63807 L 130.97288 172.11818 L 52.129118 172.11818 z " />
    <path
       id="rect4-3-0"
       style="fill:#000014;fill-opacity:1;stroke:#000014;stroke-width:1.95459;stroke-linecap:round;stroke-linejoin:round;stroke-dasharray:none;stroke-opacity:1;paint-order:markers fill stroke"
       inkscape:label="offBlackBoxes"
       d="M 75.762817 63.384762 L 75.762817 72.808993 L 109.06879 72.808993 L 109.06879 63.384762 L 75.762817 63.384762 z M 15.289506 78.875806 L 15.289506 88.642651 L 37.141402 88.642651 L 37.141402 78.875806 L 15.289506 78.875806 z M 42.727625 79.112484 L 42.727625 88.405973 L 81.153703 88.405973 L 81.153703 79.112484 L 42.727625 79.112484 z M 87.058252 79.194132 L 87.058252 88.324325 L 132.55677 88.324325 L 132.55677 79.194132 L 87.058252 79.194132 z M 137.5208 79.307821 L 137.5208 88.210636 L 194.08014 88.210636 L 194.08014 79.307821 L 137.5208 79.307821 z M 159.58354 94.728585 L 159.58354 104.11509 L 194.32199 104.11509 L 194.32199 94.728585 L 159.58354 94.728585 z M 15.896187 94.946143 L 15.896187 103.89702 L 70.002962 103.89702 L 70.002962 94.946143 L 15.896187 94.946143 z M 15.421798 110.33332 L 15.421798 119.83506 L 45.880404 119.83506 L 45.880404 110.33332 L 15.421798 110.33332 z M 137.5208 110.63252 L 137.5208 119.53586 L 194.08014 119.53586 L 194.08014 110.63252 L 137.5208 110.63252 z M 52.129118 110.82476 L 52.129118 119.34414 L 130.97288 119.34414 L 130.97288 110.82476 L 52.129118 110.82476 z M 68.308492 126.21762 L 68.308492 135.27598 L 117.12825 135.27598 L 117.12825 126.21762 L 68.308492 126.21762 z M 15.701367 141.93759 L 15.701367 150.88071 L 70.197782 150.88071 L 70.197782 141.93759 L 15.701367 141.93759 z M 76.009831 141.94431 L 76.009831 150.87451 L 131.17804 150.87451 L 131.17804 141.94431 L 76.009831 141.94431 z M 137.5208 141.95774 L 137.5208 150.86108 L 194.08014 150.86108 L 194.08014 141.95774 L 137.5208 141.95774 z M 75.762817 156.0034 L 75.762817 165.42763 L 109.06879 165.42763 L 109.06879 156.0034 L 75.762817 156.0034 z M 115.0891 156.15946 L 115.0891 165.27157 L 161.42322 165.27157 L 161.42322 156.15946 L 115.0891 156.15946 z M 15.896187 156.24008 L 15.896187 165.19095 L 70.002962 165.19095 L 70.002962 156.24008 L 15.896187 156.24008 z M 15.421798 171.62725 L 15.421798 181.129 L 45.880404 181.129 L 45.880404 171.62725 L 15.421798 171.62725 z M 137.5208 171.92646 L 137.5208 180.82979 L 194.08014 180.82979 L 194.08014 171.92646 L 137.5208 171.92646 z " />
  </g>
</svg>
