<?xml version="1.0" encoding="UTF-8" standalone="no"?>
<svg
   width="64"
   height="64"
   version="1.1"
   id="svg1"
   sodipodi:docname="sass-icon-fr.svg"
   inkscape:version="1.3 (0e150ed6c4, 2023-07-21)"
   xmlns:inkscape="http://www.inkscape.org/namespaces/inkscape"
   xmlns:sodipodi="http://sodipodi.sourceforge.net/DTD/sodipodi-0.dtd"
   xmlns="http://www.w3.org/2000/svg"
   xmlns:svg="http://www.w3.org/2000/svg">
  <defs
     id="defs1" />
  <sodipodi:namedview
     id="namedview1"
     pagecolor="#ffffff"
     bordercolor="#000000"
     borderopacity="0.25"
     inkscape:showpageshadow="2"
     inkscape:pageopacity="0.0"
     inkscape:pagecheckerboard="0"
     inkscape:deskcolor="#d1d1d1"
     inkscape:zoom="12.140625"
     inkscape:cx="31.958816"
     inkscape:cy="31.917632"
     inkscape:window-width="1920"
     inkscape:window-height="991"
     inkscape:window-x="-9"
     inkscape:window-y="-9"
     inkscape:window-maximized="1"
     inkscape:current-layer="svg1" />
  <path
     d="m 54.783396,35.511896 c -2.207905,0.01282 -4.118857,0.542566 -5.722005,1.331751 -0.591931,-1.17194 -1.183862,-2.194922 -1.282517,-2.959446 -0.111481,-0.887834 -0.246639,-1.430398 -0.111481,-2.490866 0.135158,-1.060468 0.752739,-2.564853 0.752739,-2.688163 -0.01184,-0.111473 -0.136144,-0.654037 -1.405837,-0.665876 -1.269692,-0.01184 -2.367725,0.246621 -2.491044,0.580052 a 14.166892,14.16588 0 0 0 -0.530766,1.887139 c -0.221974,1.159117 -2.540372,5.265841 -3.860379,7.424263 -0.43211,-0.838509 -0.802067,-1.578371 -0.876058,-2.170259 -0.111481,-0.887834 -0.246638,-1.4304 -0.111481,-2.490868 0.135158,-1.060467 0.75274,-2.564853 0.75274,-2.688163 -0.01184,-0.111472 -0.136144,-0.654037 -1.405838,-0.665875 -1.269692,-0.01184 -2.367725,0.246621 -2.491044,0.580052 -0.12332,0.33343 -0.259464,1.122616 -0.530765,1.887139 -0.259463,0.764524 -3.342439,7.621559 -4.14352,9.409064 -0.407446,0.912496 -0.764578,1.64052 -1.024042,2.133761 -0.259463,0.493241 -0.01184,0.03749 -0.0365,0.08681 l -0.345292,0.654037 v 0.01183 c -0.172646,0.308769 -0.358118,0.604714 -0.443948,0.604714 -0.06116,0 -0.185471,-0.826672 0.02467,-1.961126 0.456774,-2.380381 1.566645,-6.092513 1.55382,-6.227661 0,-0.06116 0.210136,-0.715198 -0.715251,-1.048629 -0.900722,-0.333431 -1.221352,0.221958 -1.295343,0.221958 -0.074,0 -0.136144,0.197297 -0.136144,0.197297 0,0 0.999377,-4.180711 -1.911938,-4.180711 -1.825123,0 -4.340831,1.985788 -5.586846,3.797955 L 15.119063,39.52293 14.982918,39.374958 C 11.457962,35.610545 4.9338908,32.947044 5.2051926,27.891324 5.3038479,26.053509 5.9451069,21.206923 17.734408,15.337356 c 9.656374,-4.8091 17.389958,-3.490173 18.73463,-0.555389 1.911938,4.192547 -4.131682,11.985754 -14.170839,13.110343 -3.82289,0.43208 -5.833484,-1.048629 -6.339585,-1.603032 -0.530766,-0.580052 -0.604757,-0.604714 -0.802068,-0.493242 -0.320629,0.172635 -0.123318,0.690538 0,0.999307 0.295967,0.777348 1.529157,2.158422 3.62558,2.84896 1.837948,0.604713 6.326761,0.937157 11.753785,-1.159117 6.080122,-2.355719 10.828399,-8.891161 9.4344,-14.353312 C 38.55165,8.57009 29.327385,6.7450985 20.607248,9.8406787 15.41601,11.688359 9.8025268,14.572832 5.757662,18.35895 0.93835368,22.847442 0.1737756,26.769694 0.49341856,28.397389 1.6161151,34.205795 9.619028,37.991912 12.825323,40.791547 l -0.443949,0.246621 c -1.603147,0.789186 -7.707933,3.983414 -9.2370892,7.362115 -1.7264667,3.822617 0.2713018,6.572928 1.6031476,6.942859 4.1188561,1.147278 8.3363676,-0.912495 10.6182626,-4.304021 2.269071,-3.391524 1.997769,-7.793206 0.95005,-9.803656 l -0.03749,-0.07399 1.257854,-0.739861 c 0.813905,-0.481403 1.615972,-0.92532 2.318398,-1.307089 -0.394621,1.073293 -0.678749,2.342895 -0.826731,4.192548 -0.172647,2.170261 0.71525,4.981734 1.887275,6.092513 0.51794,0.481402 1.134535,0.493241 1.517318,0.493241 1.356508,0 1.973104,-1.122617 2.651852,-2.466205 0.83857,-1.64052 1.578484,-3.539497 1.578484,-3.539497 0,0 -0.925386,5.14253 1.603147,5.14253 0.925387,0 1.849786,-1.196603 2.269071,-1.813154 v 0.01183 c 0,0 0.02467,-0.03749 0.074,-0.12331 0.09866,-0.147972 0.147983,-0.234782 0.147983,-0.234782 v -0.02467 c 0.369957,-0.641213 1.196688,-2.109098 2.429879,-4.537816 1.591309,-3.13208 3.120465,-7.053346 3.120465,-7.053346 0,0 0.147983,0.96182 0.604756,2.540191 0.271302,0.937158 0.863233,1.961126 1.320008,2.959446 l -0.591932,0.813848 0.01184,0.01282 a 35.140996,35.138485 0 0 1 -0.974714,1.233103 c -1.257854,1.504385 -2.762347,3.21889 -2.959658,3.712131 -0.234799,0.580052 -0.185471,1.011145 0.271303,1.356413 0.333455,0.24662 0.925386,0.295945 1.553819,0.24662 1.134536,-0.07399 1.923778,-0.358093 2.318398,-0.530727 a 8.0305363,8.0299625 0 0 0 1.99777,-1.04863 c 1.23319,-0.912496 1.985929,-2.207747 1.911938,-3.93409 -0.03749,-0.949982 -0.345294,-1.88714 -0.728076,-2.774973 l 0.333455,-0.493242 c 1.948441,-2.848959 3.452933,-5.981039 3.452933,-5.981039 0,0 0.147983,0.96182 0.604757,2.540191 0.234799,0.80201 0.703412,1.677019 1.122696,2.54019 -1.825122,1.492547 -2.972482,3.218891 -3.367103,4.353345 -0.728075,2.096274 -0.160807,3.046257 0.912561,3.268215 0.481437,0.09865 1.172025,-0.123311 1.689964,-0.345269 0.64126,-0.21012 1.418663,-0.567228 2.133913,-1.097954 1.23319,-0.912496 2.417054,-2.183085 2.355887,-3.896604 -0.03749,-0.789186 -0.246638,-1.566533 -0.530766,-2.306394 1.553821,-0.641213 3.564415,-1.011144 6.116626,-0.703362 5.48819,0.641213 6.573398,4.069237 6.363262,5.499637 -0.210135,1.430398 -1.35651,2.219584 -1.739292,2.466204 -0.382781,0.234783 -0.506101,0.320607 -0.468611,0.493241 0.04933,0.259445 0.221974,0.246621 0.555428,0.197297 0.456774,-0.07399 2.885666,-1.171941 2.984321,-3.81078 0.147982,-3.391525 -3.071138,-7.090832 -8.780316,-7.053346 z M 12.456352,49.781357 C 10.643069,51.767145 8.0908583,52.518845 7.0056508,51.877631 5.8336265,51.198932 6.2904003,48.276973 8.5229683,46.167874 9.8794778,44.885447 11.643434,43.701669 12.802633,42.973645 l 1.122696,-0.678699 c 0.074,-0.04932 0.123319,-0.07399 0.123319,-0.07399 0.08682,-0.04932 0.185472,-0.111472 0.284127,-0.172634 0.826731,3.00877 0.03749,5.647609 -1.874449,7.732045 z m 13.259265,-9.014471 c -0.629421,1.541871 -1.961266,5.499636 -2.762347,5.277678 -0.690587,-0.185459 -1.109872,-3.181404 -0.136144,-6.141837 0.493275,-1.492547 1.541981,-3.268214 2.158576,-3.958751 0.999377,-1.109792 2.084585,-1.479723 2.355887,-1.023969 0.320629,0.591889 -1.221352,4.883086 -1.615972,5.845893 z m 10.938892,5.228354 c -0.271301,0.136134 -0.51794,0.234783 -0.629421,0.160796 -0.08682,-0.04932 0.111481,-0.234783 0.111481,-0.234783 0,0 1.369335,-1.467884 1.911939,-2.145598 l 1.073369,-1.369236 v 0.147972 c 0,1.775667 -1.701803,2.959446 -2.466381,3.440849 z m 8.435023,-1.92364 c -0.19731,-0.147972 -0.172647,-0.604713 0.493276,-2.035112 0.259464,-0.567227 0.851395,-1.517209 1.87445,-2.416881 0.123319,0.369931 0.19731,0.728024 0.185472,1.060469 -0.01282,2.219584 -1.591309,3.046255 -2.553198,3.391524 z"
     fill="#cf649a"
     id="path1"
     style="fill:#000014;fill-opacity:1;stroke:#0000ff;stroke-width:1;stroke-opacity:0.97879857" />
</svg>
