<?xml version="1.0" encoding="UTF-8" standalone="no"?>
<!-- Created with Inkscape (http://www.inkscape.org/) -->

<svg
   width="180mm"
   height="179.98611mm"
   viewBox="0 0 180 179.98612"
   version="1.1"
   id="svg1"
   xml:space="preserve"
   inkscape:version="1.3 (0e150ed6c4, 2023-07-21)"
   sodipodi:docname="beautiful-soup-icon.svg"
   xmlns:inkscape="http://www.inkscape.org/namespaces/inkscape"
   xmlns:sodipodi="http://sodipodi.sourceforge.net/DTD/sodipodi-0.dtd"
   xmlns:xlink="http://www.w3.org/1999/xlink"
   xmlns="http://www.w3.org/2000/svg"
   xmlns:svg="http://www.w3.org/2000/svg"><sodipodi:namedview
     id="namedview1"
     pagecolor="#ffffff"
     bordercolor="#000000"
     borderopacity="0.25"
     inkscape:showpageshadow="2"
     inkscape:pageopacity="0.0"
     inkscape:pagecheckerboard="0"
     inkscape:deskcolor="#d1d1d1"
     inkscape:document-units="mm"
     inkscape:zoom="0.70710678"
     inkscape:cx="412.95036"
     inkscape:cy="409.41483"
     inkscape:window-width="1920"
     inkscape:window-height="991"
     inkscape:window-x="-9"
     inkscape:window-y="-9"
     inkscape:window-maximized="1"
     inkscape:current-layer="layer1" /><defs
     id="defs1"><linearGradient
       id="linearGradient11"
       inkscape:collect="always"><stop
         style="stop-color:#ffffff;stop-opacity:0.5;"
         offset="0"
         id="stop10" /><stop
         style="stop-color:#27ff00;stop-opacity:1;"
         offset="1"
         id="stop11" /></linearGradient><inkscape:path-effect
       effect="bspline"
       id="path-effect1"
       is_visible="true"
       lpeversion="1.3"
       weight="33.333333"
       steps="2"
       helper_size="0"
       apply_no_weight="true"
       apply_with_weight="true"
       only_selected="false"
       uniform="false" /><linearGradient
       id="linearGradient29"
       inkscape:collect="always"><stop
         style="stop-color:#808080;stop-opacity:0.5;"
         offset="0"
         id="stop30" /><stop
         style="stop-color:#414141;stop-opacity:1;"
         offset="0.67000002"
         id="stop29" /></linearGradient><linearGradient
       id="linearGradient27"
       inkscape:collect="always"><stop
         style="stop-color:#3f3f3f;stop-opacity:1;"
         offset="0.33000001"
         id="stop27" /><stop
         style="stop-color:#808080;stop-opacity:0.5;"
         offset="1"
         id="stop28" /></linearGradient><linearGradient
       id="linearGradient25"
       inkscape:collect="always"><stop
         style="stop-color:#3f3f3f;stop-opacity:1;"
         offset="0.33000001"
         id="stop25" /><stop
         style="stop-color:#808080;stop-opacity:0.5;"
         offset="1"
         id="stop26" /></linearGradient><inkscape:path-effect
       effect="bspline"
       id="path-effect25"
       is_visible="true"
       lpeversion="1.3"
       weight="33.333333"
       steps="2"
       helper_size="0"
       apply_no_weight="true"
       apply_with_weight="true"
       only_selected="false"
       uniform="false" /><inkscape:path-effect
       effect="bspline"
       id="path-effect24"
       is_visible="true"
       lpeversion="1.3"
       weight="33.333333"
       steps="2"
       helper_size="0"
       apply_no_weight="true"
       apply_with_weight="true"
       only_selected="false"
       uniform="false" /><inkscape:path-effect
       effect="bspline"
       id="path-effect23"
       is_visible="true"
       lpeversion="1.3"
       weight="33.333333"
       steps="2"
       helper_size="0"
       apply_no_weight="true"
       apply_with_weight="true"
       only_selected="false"
       uniform="false" /><inkscape:path-effect
       effect="bspline"
       id="path-effect22"
       is_visible="true"
       lpeversion="1.3"
       weight="33.333333"
       steps="2"
       helper_size="0"
       apply_no_weight="true"
       apply_with_weight="true"
       only_selected="false"
       uniform="false" /><inkscape:path-effect
       effect="bspline"
       id="path-effect21"
       is_visible="true"
       lpeversion="1.3"
       weight="33.333333"
       steps="2"
       helper_size="0"
       apply_no_weight="true"
       apply_with_weight="true"
       only_selected="false"
       uniform="false" /><rect
       x="233.5"
       y="711"
       width="244"
       height="118.5"
       id="rect12" /><inkscape:path-effect
       effect="bspline"
       id="path-effect7"
       is_visible="true"
       lpeversion="1.3"
       weight="33.333333"
       steps="2"
       helper_size="0"
       apply_no_weight="true"
       apply_with_weight="true"
       only_selected="false"
       uniform="false" /><inkscape:path-effect
       effect="bspline"
       id="path-effect5"
       is_visible="true"
       lpeversion="1.3"
       weight="33.333333"
       steps="2"
       helper_size="0"
       apply_no_weight="true"
       apply_with_weight="true"
       only_selected="false"
       uniform="false" /><inkscape:path-effect
       effect="bspline"
       id="path-effect2"
       is_visible="true"
       lpeversion="1.3"
       weight="33.333333"
       steps="2"
       helper_size="0"
       apply_no_weight="true"
       apply_with_weight="true"
       only_selected="false"
       uniform="false" /><inkscape:path-effect
       effect="bspline"
       id="path-effect7-1"
       is_visible="true"
       lpeversion="1.3"
       weight="33.333333"
       steps="2"
       helper_size="0"
       apply_no_weight="true"
       apply_with_weight="true"
       only_selected="false"
       uniform="false" /><inkscape:path-effect
       effect="bspline"
       id="path-effect22-6"
       is_visible="true"
       lpeversion="1.3"
       weight="33.333333"
       steps="2"
       helper_size="0"
       apply_no_weight="true"
       apply_with_weight="true"
       only_selected="false"
       uniform="false" /><inkscape:path-effect
       effect="bspline"
       id="path-effect25-8"
       is_visible="true"
       lpeversion="1.3"
       weight="33.333333"
       steps="2"
       helper_size="0"
       apply_no_weight="true"
       apply_with_weight="true"
       only_selected="false"
       uniform="false" /><linearGradient
       inkscape:collect="always"
       xlink:href="#linearGradient25"
       id="linearGradient26"
       x1="104.67502"
       y1="169.66418"
       x2="108.15646"
       y2="58.069324"
       gradientUnits="userSpaceOnUse"
       spreadMethod="pad" /><linearGradient
       inkscape:collect="always"
       xlink:href="#linearGradient27"
       id="linearGradient28"
       x1="74.447517"
       y1="57.193634"
       x2="74.662491"
       y2="168.17136"
       gradientUnits="userSpaceOnUse" /><linearGradient
       inkscape:collect="always"
       xlink:href="#linearGradient29"
       id="linearGradient30"
       x1="65.513512"
       y1="56.751881"
       x2="65.513512"
       y2="167.7296"
       gradientUnits="userSpaceOnUse" /><radialGradient
       inkscape:collect="always"
       xlink:href="#linearGradient11"
       id="radialGradient9"
       cx="104.99979"
       cy="204.07819"
       fx="104.99979"
       fy="204.07819"
       r="86.249519"
       gradientTransform="matrix(1.0434841,0,0,0.38640779,-0.8153391,124.05276)"
       gradientUnits="userSpaceOnUse"
       spreadMethod="reflect" /></defs><g
     inkscape:label="Layer 1"
     inkscape:groupmode="layer"
     id="layer1"
     transform="translate(-18.750277,-56.251543)"><path
       id="path6"
       style="fill:url(#radialGradient9);stroke:none;stroke-width:10;stroke-linecap:round;stroke-linejoin:round;stroke-dasharray:none;paint-order:markers fill stroke"
       inkscape:label="soup-bowl"
       d="M 18.750277 169.58261 C 25.801146 195.68661 44.987039 217.31103 70.864925 228.32166 L 67.051721 226.5998 C 68.322713 227.17384 69.593737 227.74769 69.600403 228.34491 C 69.607103 228.94211 68.349174 229.56265 67.091512 230.18305 L 67.190731 230.13395 C 63.710708 231.94896 60.362536 233.98655 57.172738 236.23746 L 108.75047 236.23746 L 160.69355 236.23746 C 157.37359 233.89604 153.88161 231.78712 150.24871 229.91846 C 149.1282 229.36029 148.08005 228.80335 148.08605 228.26585 C 148.09205 227.66863 149.36322 227.09477 150.63422 226.52074 L 146.82153 228.24311 C 172.60907 217.20654 191.71707 195.62103 198.75014 169.58261 L 191.57022 169.58261 C 163.96358 171.74076 136.3579 173.89912 108.75099 173.89914 C 81.144065 173.89916 53.536838 171.74076 25.930201 169.58261 L 18.750277 169.58261 z M 116.02548 177.77332 C 116.54673 177.79852 117.10781 177.92032 117.70858 178.13868 C 118.66274 178.40742 119.29894 178.94476 119.61699 179.75098 C 119.93504 180.55721 119.84664 181.56523 119.35189 182.77457 C 118.71578 184.31983 117.97381 186.20104 117.12567 188.41815 C 116.31286 190.60168 115.44723 193.00369 114.52841 195.62391 C 113.64493 198.21055 112.74352 200.88123 111.8247 203.63583 C 110.90588 206.39043 110.02236 209.11122 109.17421 211.79864 C 108.32607 214.45246 107.53096 216.95522 106.78883 219.30671 C 106.08205 221.65819 105.46374 223.72385 104.93365 225.50426 C 104.61559 226.68 103.9794 227.4359 103.02524 227.77182 C 102.07108 228.10775 101.11704 228.14133 100.16288 227.87259 C 99.208719 227.63744 98.502005 227.16727 98.042595 226.46183 C 97.583184 225.78997 97.547409 224.83258 97.936141 223.58965 C 98.430891 221.91002 99.049718 219.91101 99.791842 217.59312 C 100.53397 215.24163 101.32908 212.73939 102.17723 210.08556 C 103.06071 207.39815 103.9616 204.6603 104.88042 201.87211 C 105.83458 199.08392 106.77125 196.36261 107.69007 193.70879 C 108.60889 191.02137 109.47452 188.53566 110.28733 186.25136 C 111.13547 183.93347 111.89533 181.95151 112.56677 180.30547 C 113.02618 179.06254 113.69764 178.29012 114.58112 177.98778 C 115.02286 177.81982 115.50422 177.74813 116.02548 177.77332 z M 89.291708 189.37572 C 89.786457 189.37572 90.281105 189.57722 90.775855 189.98033 C 91.270604 190.34985 91.694736 190.82002 92.048129 191.3911 C 92.401521 191.96217 92.577812 192.55015 92.577812 193.15481 C 92.577812 193.75948 92.45415 194.24619 92.206775 194.61571 C 91.99474 194.98523 91.659012 195.30453 91.199602 195.57327 C 90.174763 196.21153 89.026547 196.91731 87.754334 197.68994 C 86.51746 198.46257 85.227694 199.25153 83.884803 200.05775 C 82.57725 200.86398 81.269597 201.65345 79.962045 202.42608 C 78.689831 203.19871 77.487953 203.92102 76.357097 204.59288 C 77.240578 205.13036 78.230391 205.73538 79.325908 206.40724 C 80.456764 207.0455 81.640755 207.7337 82.877629 208.47274 C 84.114503 209.17819 85.351123 209.9005 86.587997 210.63954 C 87.86021 211.34498 89.097347 212.03371 90.298881 212.70556 C 90.82897 213.00789 91.235214 213.39436 91.517928 213.86466 C 91.835982 214.30137 91.994902 214.85576 91.994902 215.52761 C 91.994902 216.09868 91.818094 216.68614 91.464702 217.29081 C 91.146648 217.89548 90.722517 218.41628 90.192428 218.85299 C 89.697678 219.2561 89.18566 219.4576 88.655571 219.4576 C 88.160821 219.4576 87.559882 219.28968 86.853097 218.95376 C 86.181651 218.61783 85.45705 218.21483 84.679586 217.74453 C 83.372034 216.9383 81.958606 216.06513 80.439018 215.12453 C 78.91943 214.15035 77.399711 213.15937 75.880123 212.15159 C 74.395875 211.14381 73.000334 210.20295 71.692782 209.32954 C 70.38523 208.45613 69.3249 207.73382 68.512097 207.16274 C 68.052687 206.86041 67.716959 206.50752 67.504924 206.10441 C 67.292888 205.66771 67.186597 205.16395 67.186597 204.59288 C 67.186597 204.05539 67.310259 203.55164 67.557634 203.08134 C 67.840348 202.57745 68.299738 202.09023 68.935844 201.61993 C 69.501272 201.18323 70.420569 200.56167 71.692782 199.75545 C 72.964995 198.94922 74.431568 198.02541 76.092513 196.98404 C 77.753458 195.94267 79.467356 194.86799 81.234318 193.75943 C 83.001281 192.61728 84.67992 191.52555 86.270187 190.48418 C 86.729597 190.18184 87.206358 189.92971 87.701107 189.72815 C 88.195857 189.493 88.72628 189.37572 89.291708 189.37572 z M 128.57975 189.37572 C 129.32187 189.37572 129.99333 189.52659 130.5941 189.82892 C 131.2302 190.09766 131.91955 190.46708 132.66167 190.93738 C 133.96922 191.7436 135.38265 192.63383 136.90224 193.60802 C 138.45717 194.54861 139.99477 195.52306 141.51436 196.53084 C 143.03395 197.50502 144.44738 198.42883 145.75493 199.30224 C 147.06248 200.14206 148.14018 200.84732 148.98832 201.41839 C 149.44773 201.75432 149.78346 202.14079 149.9955 202.5775 C 150.20753 203.0142 150.31382 203.51796 150.31382 204.08903 C 150.31382 204.62651 150.15439 205.13027 149.83633 205.60057 C 149.55362 206.07086 149.09423 206.54155 148.45812 207.01185 C 147.89269 207.44855 146.95654 208.08664 145.64899 208.92646 C 144.37678 209.73269 142.9102 210.6565 141.24926 211.69787 C 139.58831 212.73924 137.87442 213.83097 136.10745 214.97312 C 134.34049 216.08168 132.66185 217.15687 131.07159 218.19825 C 130.61218 218.50058 130.1349 218.76925 129.64015 219.0044 C 129.1454 219.20596 128.61549 219.30671 128.05007 219.30671 C 127.59066 219.30671 127.09549 219.12174 126.5654 218.75222 C 126.07065 218.3827 125.64704 217.91253 125.29364 217.34145 C 124.94025 216.73678 124.76344 216.16586 124.76344 215.62838 C 124.76344 215.02371 124.86922 214.51944 125.08125 214.11633 C 125.32863 213.71321 125.68224 213.37738 126.14165 213.10864 C 127.16649 212.47037 128.29734 211.76512 129.53421 210.99249 C 130.80643 210.21985 132.09619 209.43038 133.40374 208.62415 C 134.74664 207.81793 136.05429 207.02846 137.3265 206.25582 C 138.63405 205.48319 139.83542 204.74435 140.93093 204.0389 C 140.08279 203.46783 139.09349 202.86281 137.96264 202.22455 C 136.86712 201.58628 135.70102 200.91461 134.46414 200.20916 C 133.22727 199.47013 131.97276 198.74782 130.70055 198.04237 C 129.46368 197.30333 128.24443 196.59808 127.04289 195.92622 C 126.5128 195.59029 126.08867 195.20382 125.77062 194.76712 C 125.4879 194.33041 125.34635 193.79308 125.34635 193.15481 C 125.34635 192.58374 125.50527 192.0123 125.82333 191.44122 C 126.14138 190.83656 126.54814 190.34985 127.04289 189.98033 C 127.53764 189.57722 128.04966 189.37572 128.57975 189.37572 z " /><path
       style="fill:none;stroke:url(#linearGradient28);stroke-width:6.88048;stroke-linecap:round;stroke-linejoin:round;stroke-dasharray:none;stroke-opacity:1;paint-order:normal"
       d="m 75.604687,139.07161 c -8.300117,0.0408 -16.600236,0.0816 -20.750295,-8.50428 -4.150058,-8.58586 -4.150058,-25.79768 0.339609,-34.341393 4.489667,-8.543713 13.468641,-8.418989 22.518008,-8.387808 9.049368,0.03118 18.168584,-0.03118 22.728281,-0.654822 4.5597,-0.62364 4.5597,-1.808513 0.28055,-2.494506 C 96.441687,84.002808 87.883726,83.815723 83.698206,79.699691 79.512685,75.58366 79.69977,67.539009 83.978921,63.547785 88.258072,59.556561 96.628946,59.618922 104.99999,59.681284"
       id="path21-9"
       inkscape:path-effect="#path-effect22-6"
       inkscape:original-d="m 75.604687,139.07161 c -8.300117,0.0408 -16.600236,0.0816 -24.900353,0.12236 0,-17.2125 0,-34.42432 0,-51.636475 8.979334,0.12473 17.958308,0.249452 26.937462,0.374179 9.119581,-0.06236 18.238797,-0.124727 27.358194,-0.187089 0,-1.184918 0,-2.369791 0,-3.554685 -8.558303,-0.187092 -17.116264,-0.374177 -25.674397,-0.561266 0.187093,-8.044974 0.374179,-16.089625 0.561266,-24.134437 8.371213,0.06236 25.113131,0.187087 25.113131,0.187087"
       sodipodi:nodetypes="ccccccccc"
       transform="matrix(-1.0434841,0,0,-0.99191188,220.94438,223.58662)"
       inkscape:label="right-steam" /><path
       style="fill:none;stroke:url(#linearGradient30);stroke-width:6.88048;stroke-linecap:round;stroke-linejoin:round;stroke-dasharray:none;stroke-opacity:1;paint-order:normal"
       d="m 75.604687,139.07161 c -8.300117,0.0408 -16.600236,0.0816 -20.750295,-8.50428 -4.150058,-8.58586 -4.150058,-25.79768 0.339609,-34.341393 4.489667,-8.543713 13.468641,-8.418989 22.518008,-8.387808 9.049368,0.03118 18.168584,-0.03118 22.728281,-0.654822 4.5597,-0.62364 4.5597,-1.808513 0.28055,-2.494506 C 96.441687,84.002808 87.883726,83.815723 83.698206,79.699691 79.512685,75.58366 79.69977,67.539009 83.978921,63.547785 88.258072,59.556561 96.628946,59.618922 104.99999,59.681284"
       id="path21"
       inkscape:path-effect="#path-effect22"
       inkscape:original-d="m 75.604687,139.07161 c -8.300117,0.0408 -16.600236,0.0816 -24.900353,0.12236 0,-17.2125 0,-34.42432 0,-51.636475 8.979334,0.12473 17.958308,0.249452 26.937462,0.374179 9.119581,-0.06236 18.238797,-0.124727 27.358194,-0.187089 0,-1.184918 0,-2.369791 0,-3.554685 -8.558303,-0.187092 -17.116264,-0.374177 -25.674397,-0.561266 0.187093,-8.044974 0.374179,-16.089625 0.561266,-24.134437 8.371213,0.06236 25.113131,0.187087 25.113131,0.187087"
       sodipodi:nodetypes="ccccccccc"
       inkscape:label="left-steam"
       transform="matrix(1.0434841,0,0,0.99191188,-0.81533911,0.4825843)" /><path
       style="fill:none;stroke:url(#linearGradient26);stroke-width:6.88048;stroke-linecap:round;stroke-linejoin:round;stroke-dasharray:none;stroke-opacity:1;paint-order:normal"
       d="m 96.163574,166.13474 c -5.113755,-0.18709 -10.227514,-0.37418 -12.273481,-6.90404 -2.045967,-6.52985 -1.024207,-19.40169 9.827155,-26.85421 10.851362,-7.45251 31.531432,-9.48484 41.902852,-14.33642 10.37142,-4.85158 10.43379,-12.52206 -2.62837,-10.9325 -13.06215,1.58955 -39.24777,12.43887 -52.914108,13.57491 -13.666339,1.13605 -14.812842,-7.44121 -4.753946,-12.37779 10.058897,-4.93658 31.321934,-6.23203 42.275704,-13.510972 10.95378,-7.278938 11.59696,-20.540742 9.82936,-27.140595 -1.7676,-6.599854 -5.94583,-6.537491 -10.12415,-6.475128"
       id="path23"
       inkscape:path-effect="#path-effect24"
       inkscape:original-d="m 96.163574,166.13474 c -5.113755,-0.18709 -10.227514,-0.37418 -15.34127,-0.56127 1.021822,-12.87262 2.043582,-25.74446 3.065404,-38.61708 20.680902,-2.03241 41.360972,-4.06474 62.041452,-6.09711 0.0624,-7.67079 0.12472,-15.34127 0.18709,-23.011906 -26.18667,10.849746 -52.372289,21.699066 -78.558439,32.548596 -1.146528,-8.57744 -2.293032,-17.1547 -3.439583,-25.73232 21.264345,-1.29554 42.527382,-2.591 63.791722,-3.88653 0.64321,-13.26234 1.28639,-26.524144 1.92958,-39.786215 -4.17839,0.06236 -8.35662,0.124725 -12.53494,0.18709"
       transform="matrix(1.0434841,0,0,0.99191188,-0.97861438,-0.911185)"
       sodipodi:nodetypes="cccccccccc"
       inkscape:label="mid-steam" /></g></svg>
