<?xml version="1.0" encoding="UTF-8" standalone="no"?>
<svg
   viewBox="0 0 88 88"
   version="1.1"
   id="svg3"
   sodipodi:docname="google-sheets-icon-zh.svg"
   width="88"
   height="88"
   inkscape:version="1.3 (0e150ed6c4, 2023-07-21)"
   xmlns:inkscape="http://www.inkscape.org/namespaces/inkscape"
   xmlns:sodipodi="http://sodipodi.sourceforge.net/DTD/sodipodi-0.dtd"
   xmlns="http://www.w3.org/2000/svg"
   xmlns:svg="http://www.w3.org/2000/svg">
  <defs
     id="defs3" />
  <sodipodi:namedview
     id="namedview3"
     pagecolor="#ffffff"
     bordercolor="#000000"
     borderopacity="0.25"
     inkscape:showpageshadow="2"
     inkscape:pageopacity="0.0"
     inkscape:pagecheckerboard="0"
     inkscape:deskcolor="#d1d1d1"
     inkscape:zoom="6.2434315"
     inkscape:cx="47.089489"
     inkscape:cy="51.173782"
     inkscape:window-width="1920"
     inkscape:window-height="991"
     inkscape:window-x="-9"
     inkscape:window-y="-9"
     inkscape:window-maximized="1"
     inkscape:current-layer="svg3" />
  <path
     d="M 54,0 76,22 65,24 54,22 52,11 Z"
     fill="#188038"
     id="path1"
     style="fill:#000014;fill-opacity:1" />
  <path
     d="M 54,22 V 0 H 18 c -3.315,0 -6,2.685 -6,6 v 76 c 0,3.315 2.685,6 6,6 h 52 c 3.315,0 6,-2.685 6,-6 V 22 Z"
     fill="#34a853"
     id="path2"
     style="fill:#141428;fill-opacity:1" />
  <path
     d="M 24,34 V 63 H 64 V 34 Z M 41.5,58 H 29 v -7 h 12.5 z m 0,-12 H 29 V 39 H 41.5 Z M 59,58 H 46.5 V 51 H 59 Z M 59,46 H 46.5 V 39 H 59 Z"
     fill="#fff"
     id="path3"
     style="fill:#ff0000;fill-opacity:1" />
</svg>
