<?xml version="1.0" encoding="UTF-8" standalone="no"?>
<!-- Created with Inkscape (http://www.inkscape.org/) -->

<svg
   width="150mm"
   height="150mm"
   viewBox="0 0 150 150"
   version="1.1"
   id="svg1"
   xml:space="preserve"
   inkscape:version="1.3 (0e150ed6c4, 2023-07-21)"
   sodipodi:docname="git-bash-icon-fr.svg"
   xmlns:inkscape="http://www.inkscape.org/namespaces/inkscape"
   xmlns:sodipodi="http://sodipodi.sourceforge.net/DTD/sodipodi-0.dtd"
   xmlns="http://www.w3.org/2000/svg"
   xmlns:svg="http://www.w3.org/2000/svg"><sodipodi:namedview
     id="namedview1"
     pagecolor="#ffffff"
     bordercolor="#000000"
     borderopacity="0.25"
     inkscape:showpageshadow="2"
     inkscape:pageopacity="0.0"
     inkscape:pagecheckerboard="0"
     inkscape:deskcolor="#d1d1d1"
     inkscape:document-units="mm"
     inkscape:zoom="1.3843855"
     inkscape:cx="200.08878"
     inkscape:cy="235.84471"
     inkscape:window-width="1920"
     inkscape:window-height="991"
     inkscape:window-x="-9"
     inkscape:window-y="-9"
     inkscape:window-maximized="1"
     inkscape:current-layer="layer1" /><defs
     id="defs1"><inkscape:path-effect
       effect="bspline"
       id="path-effect10"
       is_visible="true"
       lpeversion="1.3"
       weight="33.333333"
       steps="2"
       helper_size="0"
       apply_no_weight="true"
       apply_with_weight="true"
       only_selected="false"
       uniform="false" /><inkscape:path-effect
       effect="bspline"
       id="path-effect9"
       is_visible="true"
       lpeversion="1.3"
       weight="33.333333"
       steps="2"
       helper_size="0"
       apply_no_weight="true"
       apply_with_weight="true"
       only_selected="false"
       uniform="false" /><inkscape:path-effect
       effect="bspline"
       id="path-effect8"
       is_visible="true"
       lpeversion="1.3"
       weight="33.333333"
       steps="2"
       helper_size="0"
       apply_no_weight="true"
       apply_with_weight="true"
       only_selected="false"
       uniform="false" /><inkscape:path-effect
       effect="bspline"
       id="path-effect2"
       is_visible="true"
       lpeversion="1.3"
       weight="33.333333"
       steps="2"
       helper_size="0"
       apply_no_weight="true"
       apply_with_weight="true"
       only_selected="false"
       uniform="false" /><inkscape:path-effect
       effect="bspline"
       id="path-effect2-3"
       is_visible="true"
       lpeversion="1.3"
       weight="33.333333"
       steps="2"
       helper_size="0"
       apply_no_weight="true"
       apply_with_weight="true"
       only_selected="false"
       uniform="false" /><inkscape:path-effect
       effect="bspline"
       id="path-effect8-4"
       is_visible="true"
       lpeversion="1.3"
       weight="33.333333"
       steps="2"
       helper_size="0"
       apply_no_weight="true"
       apply_with_weight="true"
       only_selected="false"
       uniform="false" /><inkscape:path-effect
       effect="bspline"
       id="path-effect8-0"
       is_visible="true"
       lpeversion="1.3"
       weight="33.333333"
       steps="2"
       helper_size="0"
       apply_no_weight="true"
       apply_with_weight="true"
       only_selected="false"
       uniform="false" /><inkscape:path-effect
       effect="bspline"
       id="path-effect8-0-8"
       is_visible="true"
       lpeversion="1.3"
       weight="33.333333"
       steps="2"
       helper_size="0"
       apply_no_weight="true"
       apply_with_weight="true"
       only_selected="false"
       uniform="false" /></defs><g
     inkscape:label="Layer 1"
     inkscape:groupmode="layer"
     id="layer1"><path
       style="display:inline;fill:#000014;fill-opacity:1;stroke:none;stroke-width:10;stroke-linecap:round;stroke-linejoin:round;paint-order:markers fill stroke"
       d="m 33.063706,37.841697 c 0,0 25.418917,25.03668 25.418917,25.03668 4.013514,4.040541 8.027027,8.081081 8.218111,11.776096 0.191084,3.695015 -3.440116,7.044368 -7.07139,10.393788 0,0 -26.756757,26.374519 -26.756757,26.374519 0,0 -24.0810814,-24.272201 -24.0810814,-24.272201 C 4.5868725,83.100386 0.38223836,79.050192 0.70082011,74.590685 1.0194019,70.131177 5.8610041,65.262549 10.702703,60.393823 Z"
       id="path8"
       inkscape:path-effect="#path-effect8"
       inkscape:original-d="m 33.063706,37.841697 c 0,0 25.418917,25.03668 25.418917,25.03668 0,0 8.027027,8.081081 12.040542,12.121623 -3.631348,3.349487 -10.893821,10.048261 -10.893821,10.048261 0,0 -26.756757,26.374519 -26.756757,26.374519 0,0 -24.0810814,-24.272201 -24.0810814,-24.272201 0,0 -8.40926622,-8.100388 -12.6138994,-12.150579 C 1.0194018,70.131177 10.702703,60.393823 10.702703,60.393823 Z"
       transform="translate(-0.11722571,0.3677615)"
       inkscape:label="left-block" /><path
       id="path8-8"
       style="display:inline;fill:#0000ff;fill-opacity:1;stroke:none;stroke-width:10;stroke-linecap:round;stroke-linejoin:round;paint-order:markers fill stroke"
       inkscape:label="right-block"
       d="M 33.063808 37.841793 L 13.487225 57.585807 L 20.272341 64.414848 A 11.81083 11.701693 0 0 1 23.813727 63.861393 A 11.81083 11.701693 0 0 1 35.624375 75.563004 A 11.81083 11.701693 0 0 1 23.813727 87.265132 A 11.81083 11.701693 0 0 1 12.002561 75.563004 A 11.81083 11.701693 0 0 1 13.018003 70.840812 L 6.6809225 64.545589 C 3.4816477 68.003069 0.92872031 71.401785 0.70092574 74.590454 C 0.38234431 79.049957 4.5867591 83.100222 8.791388 87.150411 L 32.872605 111.42283 L 59.629112 85.048213 C 63.260382 81.698796 66.891599 78.349544 66.700515 74.654533 C 66.509431 70.959521 62.495922 66.919044 58.482412 62.878507 L 33.063808 37.841793 z "
       transform="translate(82.597349,0.3677615)" /><path
       id="path8-3"
       style="display:inline;fill:#141428;fill-opacity:1;stroke:none;stroke-width:10;stroke-linecap:round;stroke-linejoin:round;paint-order:markers fill stroke"
       inkscape:label="top-block"
       d="M 0.69276666 75.422036 C 0.9075959 79.556353 4.8495899 83.353622 8.7914295 87.150674 L 16.329958 94.74892 L 32.943799 77.918697 A 11.297125 11.81083 0.45185736 0 1 32.408659 74.288229 A 11.297125 11.81083 0.45185736 0 1 43.798501 62.566523 A 11.297125 11.81083 0.45185736 0 1 47.42521 63.248853 L 53.061565 57.538955 L 33.063797 37.841774 L 10.702746 60.39394 C 5.861052 65.262661 1.019402 70.131097 0.7008206 74.5906 C 0.68090926 74.869319 0.67844471 75.146415 0.69276666 75.422036 z M 23.330447 101.80444 L 32.872648 111.42256 L 59.629334 85.048328 C 61.791499 83.053987 63.935143 81.058109 65.290383 78.990832 L 54.131305 78.849079 A 11.297125 11.81083 0.45185736 0 1 43.612211 86.187603 A 11.297125 11.81083 0.45185736 0 1 39.427476 85.282791 L 23.330447 101.80444 z M 54.604038 69.706311 L 64.549464 69.632297 C 63.301926 67.88345 61.632232 66.096325 59.870292 64.300979 L 54.604038 69.706311 z "
       transform="matrix(0.00788635,1.0357794,-0.9999689,0.00816877,149.36992,-1.335209)" /><path
       id="path8-3-4"
       style="display:inline;fill:#28283c;fill-opacity:1;stroke:none;stroke-width:10;stroke-linecap:round;stroke-linejoin:round;paint-order:markers fill stroke"
       inkscape:label="bottom-block"
       d="M 1.5447658 78.562512 C 2.947466 81.516902 5.8674865 84.333963 8.7916052 87.150676 L 32.872823 111.42256 L 59.62951 85.04833 C 63.26078 81.698913 66.891847 78.349293 66.700763 74.654281 C 66.509679 70.95927 62.496245 66.918729 58.482735 62.878192 L 33.063474 37.841771 L 10.702922 60.393941 C 7.8629039 63.249812 5.0485091 66.103275 3.1213881 68.876529 L 14.743263 68.789896 A 11.297125 11.81083 0.45185736 0 1 25.065612 61.979521 A 11.297125 11.81083 0.45185736 0 1 36.269159 73.879412 A 11.297125 11.81083 0.45185736 0 1 24.879322 85.600601 A 11.297125 11.81083 0.45185736 0 1 14.716258 78.729954 L 1.5447658 78.562512 z "
       transform="matrix(0.00788635,1.0357794,-0.9999689,0.00816877,149.36992,80.62033)" /></g></svg>
