<?xml version="1.0" encoding="UTF-8" standalone="no"?>
<svg
   height="500"
   overflow="scroll"
   width="500"
   version="1.1"
   id="svg5"
   sodipodi:docname="latex-icon-fr.svg"
   inkscape:version="1.3 (0e150ed6c4, 2023-07-21)"
   xmlns:inkscape="http://www.inkscape.org/namespaces/inkscape"
   xmlns:sodipodi="http://sodipodi.sourceforge.net/DTD/sodipodi-0.dtd"
   xmlns="http://www.w3.org/2000/svg"
   xmlns:svg="http://www.w3.org/2000/svg">
  <defs
     id="defs5" />
  <sodipodi:namedview
     id="namedview5"
     pagecolor="#ffffff"
     bordercolor="#000000"
     borderopacity="0.25"
     inkscape:showpageshadow="2"
     inkscape:pageopacity="0.0"
     inkscape:pagecheckerboard="0"
     inkscape:deskcolor="#d1d1d1"
     inkscape:zoom="1.9766667"
     inkscape:cx="249.91568"
     inkscape:cy="248.65092"
     inkscape:window-width="1920"
     inkscape:window-height="991"
     inkscape:window-x="-9"
     inkscape:window-y="-9"
     inkscape:window-maximized="1"
     inkscape:current-layer="svg5" />
  <path
     d="m 109.63856,240.77042 h -5.02008 c -2.00803,18.01559 -4.819277,39.91687 -40.160651,39.91687 h -16.26506 c -9.437749,0 -9.839353,-1.23635 -9.839353,-7.06492 v -93.78698 c 0,-6.00519 0,-8.47793 18.875498,-8.47793 h 6.626504 v -5.29869 c -7.228914,0.52987 -25.301205,0.52987 -33.534133,0.52987 -7.831325,0 -23.4939743,0 -30.321285,-0.52987 v 5.29869 h 4.618476 c 15.461843,0 15.863456,1.94287 15.863456,8.30131 V 272.386 c 0,6.35844 -0.401613,8.30129 -15.863456,8.30129 H 0 v 5.47532 h 104.21687 z"
     id="path1"
     style="stroke-width:44.9999;fill:#000014;fill-opacity:1" />
  <path
     d="m 106.2249,165.88215 c -0.80322,-2.11947 -1.20482,-2.82597 -3.81527,-2.82597 -2.610437,0 -3.212847,0.7065 -4.016055,2.82597 l -32.329322,72.0623 c -1.405618,3.0026 -3.815259,8.47792 -16.26506,8.47792 v 4.41558 h 31.124502 v -4.41558 c -6.2249,0 -10.040159,-2.47272 -10.040159,-6.00518 0,-0.88313 0.200797,-1.23637 0.6024,-2.47274 0,0 6.827311,-15.1896 6.827311,-15.1896 h 39.759043 l 8.03212,18.01557 c 0.40162,0.7065 0.80322,1.58962 0.80322,2.11949 0,3.53246 -7.63053,3.53246 -11.44579,3.53246 v 4.41558 h 39.55824 v -4.41558 h -2.81125 c -9.43774,0 -10.44177,-1.23636 -11.84739,-4.76882 0,0 -34.13654,-75.77141 -34.13654,-75.7714 z m -8.032131,12.54026 17.871481,39.91686 H 80.321285 Z"
     id="path2"
     style="stroke-width:44.9999;fill:#000014;fill-opacity:1" />
  <path
     d="M 267.06828,167.11852 H 144.77912 c 0,0 -3.61446,39.56362 -3.61446,39.56362 h 4.81927 c 2.81125,-28.43635 5.8233,-34.26493 36.14459,-34.26493 3.61446,0 8.83533,0 10.84337,0.35326 4.21686,0.70648 4.21686,2.64934 4.21686,6.71168 v 92.72722 c 0,6.00519 0,8.47792 -21.08433,8.47792 h -8.03213 v 5.47531 c 8.23294,-0.52987 28.51405,-0.52987 37.75101,-0.52987 9.23695,0 29.91968,0 38.15261,0.52987 v -5.47531 h -8.03214 c -21.08433,0 -21.08433,-2.47273 -21.08433,-8.47792 v -92.72722 c 0,-3.53247 0,-6.0052 3.61446,-6.71168 2.20884,-0.35326 7.63052,-0.35326 11.44578,-0.35326 30.12049,0 33.13253,5.82858 35.94378,34.26493 h 5.02007 z"
     id="path3"
     style="stroke-width:44.9999;fill:#000014;fill-opacity:1" />
  <path
     d="m 374.69879,280.51067 h -5.02008 c -5.02008,27.02335 -9.63855,39.91685 -43.9759,39.91685 h -26.50603 c -9.43775,0 -9.83935,-1.23636 -9.83935,-7.06492 v -46.98179 h 17.87148 c 19.47791,0 21.68675,5.65193 21.68675,20.66492 h 5.02009 v -46.62855 h -5.02009 c 0,15.01297 -2.20884,20.4883 -21.68675,20.4883 h -17.87148 v -42.21297 c 0,-5.82856 0.4016,-7.06493 9.83935,-7.06493 h 25.70282 c 30.72289,0 35.94378,9.71429 39.15662,34.26492 h 5.02008 l -5.62249,-39.56362 h -112.4498 v 5.2987 h 4.61848 c 15.46184,0 15.86346,1.94286 15.86346,8.3013 v 92.19735 c 0,6.35844 -0.40162,8.30129 -15.86346,8.30129 h -4.61848 v 5.47533 h 115.26105 z"
     id="path4"
     style="stroke-width:44.9999;fill:#0000ff;fill-opacity:1" />
  <path
     d="m 435.14057,218.16265 27.51004,-35.32466 c 4.21686,-5.65194 11.04417,-11.30389 28.91565,-11.48052 v -5.29869 H 443.7751 v 5.29869 c 8.03213,0.17663 12.4498,4.06234 12.4498,8.12468 0,1.76623 -0.4016,2.11948 -1.80723,4.06234 0,0 -22.89157,29.67271 -22.89157,29.67271 l -25.7028,-33.91168 c -0.40161,-0.52987 -1.40563,-1.94285 -1.40563,-2.64934 0,-2.11948 4.41768,-5.12208 12.85141,-5.29871 v -5.29869 c -6.82731,0.52987 -21.48594,0.52987 -29.11647,0.52987 -6.2249,0 -18.67469,-0.17663 -26.10441,-0.52987 v 5.29869 h 3.81525 c 11.04418,0 14.85945,1.23637 18.67471,6.18182 0,0 36.74698,48.92465 36.74698,48.92465 l -32.73092,42.56622 c -2.81124,3.53247 -8.83535,11.65713 -28.91567,11.65713 v 5.47532 h 47.79117 v -5.47532 c -9.23695,-0.17662 -12.6506,-4.94546 -12.6506,-8.12466 0,-1.58962 0.6024,-2.29612 2.00803,-4.23897 l 28.31326,-36.91427 31.7269,42.03635 c 0.4016,0.7065 1.00401,1.41299 1.00401,1.94286 0,2.11947 -4.41767,5.12207 -13.0522,5.29869 v 5.47532 c 7.02811,-0.52987 21.68674,-0.52987 29.11647,-0.52987 8.43373,0 17.67067,0.17662 26.10441,0.52987 v -5.47532 h -3.81526 c -10.44176,0 -14.65864,-0.88312 -18.8755,-6.35843 z"
     id="path5"
     style="stroke-width:44.9999;fill:#000014;fill-opacity:1" />
</svg>
