<?xml version="1.0" encoding="UTF-8" standalone="no"?>
<svg
   height="500"
   overflow="scroll"
   width="500"
   version="1.1"
   id="svg5"
   sodipodi:docname="latex-icon.svg"
   inkscape:version="1.3 (0e150ed6c4, 2023-07-21)"
   xmlns:inkscape="http://www.inkscape.org/namespaces/inkscape"
   xmlns:sodipodi="http://sodipodi.sourceforge.net/DTD/sodipodi-0.dtd"
   xmlns="http://www.w3.org/2000/svg"
   xmlns:svg="http://www.w3.org/2000/svg">
  <defs
     id="defs5" />
  <sodipodi:namedview
     id="namedview5"
     pagecolor="#ffffff"
     bordercolor="#000000"
     borderopacity="0.25"
     inkscape:showpageshadow="2"
     inkscape:pageopacity="0.0"
     inkscape:pagecheckerboard="0"
     inkscape:deskcolor="#d1d1d1"
     inkscape:zoom="1.9766667"
     inkscape:cx="250.42158"
     inkscape:cy="289.1231"
     inkscape:window-width="1920"
     inkscape:window-height="991"
     inkscape:window-x="2391"
     inkscape:window-y="-9"
     inkscape:window-maximized="1"
     inkscape:current-layer="svg5" />
  <path
     id="path1"
     style="stroke-width:44.9999;fill:#000014;fill-opacity:1"
     d="M 102.41016 163.05664 C 99.799722 163.05664 99.197738 163.76334 98.394531 165.88281 L 66.064453 237.94531 C 64.658837 240.94791 62.248617 246.42187 49.798828 246.42188 L 49.798828 250.83789 L 80.923828 250.83789 L 80.923828 246.42188 C 74.698934 246.42188 70.882812 243.95043 70.882812 240.41797 C 70.882812 239.53484 71.084726 239.18168 71.486328 237.94531 L 78.3125 222.75391 L 118.07227 222.75391 L 126.10352 240.76953 C 126.50514 241.47603 126.9082 242.36076 126.9082 242.89062 C 126.9082 246.42308 119.27619 246.42187 115.46094 246.42188 L 115.46094 250.83789 L 155.01953 250.83789 L 155.01953 246.42188 L 152.20898 246.42188 C 142.77125 246.42188 141.76695 245.18675 140.36133 241.6543 C 140.36133 241.6543 106.22461 165.8828 106.22461 165.88281 C 105.42139 163.76334 105.0206 163.05664 102.41016 163.05664 z M 0 166.05859 L 0 171.35742 L 4.6191406 171.35742 C 20.080968 171.35742 20.482422 173.29977 20.482422 179.6582 L 20.482422 272.38672 C 20.482422 278.74515 20.080968 280.6875 4.6191406 280.6875 L 0 280.6875 L 0 286.16211 L 104.2168 286.16211 L 109.63867 240.76953 L 104.61914 240.76953 C 102.61111 258.7851 99.79837 280.6875 64.457031 280.6875 L 48.193359 280.6875 C 38.75562 280.6875 38.353516 279.45161 38.353516 273.62305 L 38.353516 179.83594 C 38.353516 173.83075 38.353037 171.35742 57.228516 171.35742 L 63.855469 171.35742 L 63.855469 166.05859 C 56.626562 166.58846 38.553232 166.58789 30.320312 166.58789 C 22.488995 166.58789 6.8273039 166.58846 0 166.05859 z M 362.04883 166.05859 L 362.04883 171.35742 L 365.86328 171.35742 C 376.90745 171.35742 380.72381 172.59362 384.53906 177.53906 L 421.28516 226.46484 L 388.55469 269.0293 C 385.74345 272.56176 379.71897 280.6875 359.63867 280.6875 L 359.63867 286.16211 L 407.42969 286.16211 L 407.42969 280.6875 C 398.19275 280.51088 394.7793 275.7417 394.7793 272.5625 C 394.7793 270.97288 395.38148 270.26707 396.78711 268.32422 L 425.09961 231.41016 L 456.82812 273.44531 C 457.22972 274.15181 457.83203 274.8588 457.83203 275.38867 C 457.83203 277.50814 453.41382 280.51088 444.7793 280.6875 L 444.7793 286.16211 C 451.8074 285.63224 466.46676 285.63281 473.89648 285.63281 C 482.33021 285.63281 491.56627 285.80886 500 286.16211 L 500 280.6875 L 496.18555 280.6875 C 485.7438 280.6875 481.52545 279.80343 477.30859 274.32812 L 435.14062 218.16211 L 462.65039 182.83789 C 466.86725 177.18596 473.69494 171.53405 491.56641 171.35742 L 491.56641 166.05859 L 443.77539 166.05859 L 443.77539 171.35742 C 451.80751 171.53405 456.22461 175.42009 456.22461 179.48242 C 456.22461 181.24865 455.8236 181.60206 454.41797 183.54492 L 431.52539 213.2168 L 405.82422 179.30469 C 405.42261 178.77482 404.41797 177.36274 404.41797 176.65625 C 404.41797 174.53677 408.83581 171.53405 417.26953 171.35742 L 417.26953 166.05859 C 410.44223 166.58846 395.78287 166.58789 388.15234 166.58789 C 381.92745 166.58789 369.47854 166.41183 362.04883 166.05859 z M 144.7793 167.11914 L 141.16406 206.68164 L 145.98438 206.68164 C 148.79562 178.24532 151.80765 172.41797 182.12891 172.41797 C 185.74336 172.41797 190.96462 172.41627 192.97266 172.76953 C 197.18951 173.47601 197.18945 175.42009 197.18945 179.48242 L 197.18945 272.20898 C 197.18945 278.21417 197.18782 280.6875 176.10352 280.6875 L 168.07227 280.6875 L 168.07227 286.16211 C 176.3052 285.63224 196.58727 285.63281 205.82422 285.63281 C 215.06116 285.63281 235.74364 285.63224 243.97656 286.16211 L 243.97656 280.6875 L 235.94336 280.6875 C 214.85905 280.6875 214.85938 278.21417 214.85938 272.20898 L 214.85938 179.48242 C 214.85938 175.94996 214.86015 173.47601 218.47461 172.76953 C 220.68345 172.41627 226.10467 172.41797 229.91992 172.41797 C 260.04038 172.41797 263.05203 178.24532 265.86328 206.68164 L 270.88281 206.68164 L 267.06836 167.11914 L 144.7793 167.11914 z M 98.193359 178.42188 L 116.06445 218.33984 L 80.320312 218.33984 L 98.193359 178.42188 z "
     inkscape:label="offBlack0" />
  <path
     d="m 374.69879,280.51067 h -5.02008 c -5.02008,27.02335 -9.63855,39.91685 -43.9759,39.91685 h -26.50603 c -9.43775,0 -9.83935,-1.23636 -9.83935,-7.06492 v -46.98179 h 17.87148 c 19.47791,0 21.68675,5.65193 21.68675,20.66492 h 5.02009 v -46.62855 h -5.02009 c 0,15.01297 -2.20884,20.4883 -21.68675,20.4883 h -17.87148 v -42.21297 c 0,-5.82856 0.4016,-7.06493 9.83935,-7.06493 h 25.70282 c 30.72289,0 35.94378,9.71429 39.15662,34.26492 h 5.02008 l -5.62249,-39.56362 h -112.4498 v 5.2987 h 4.61848 c 15.46184,0 15.86346,1.94286 15.86346,8.3013 v 92.19735 c 0,6.35844 -0.40162,8.30129 -15.86346,8.30129 h -4.61848 v 5.47533 h 115.26105 z"
     id="path4"
     style="stroke-width:44.9999;fill:#00ff00;fill-opacity:1"
     inkscape:label="color0" />
</svg>
