<?xml version="1.0" encoding="UTF-8" standalone="no"?>
<svg
   viewBox="0 0 512 512"
   version="1.1"
   id="svg1"
   sodipodi:docname="yaml-icon.svg"
   width="512"
   height="512"
   inkscape:version="1.3 (0e150ed6c4, 2023-07-21)"
   xmlns:inkscape="http://www.inkscape.org/namespaces/inkscape"
   xmlns:sodipodi="http://sodipodi.sourceforge.net/DTD/sodipodi-0.dtd"
   xmlns="http://www.w3.org/2000/svg"
   xmlns:svg="http://www.w3.org/2000/svg">
  <defs
     id="defs1" />
  <sodipodi:namedview
     id="namedview1"
     pagecolor="#ffffff"
     bordercolor="#000000"
     borderopacity="0.25"
     inkscape:showpageshadow="2"
     inkscape:pageopacity="0.0"
     inkscape:pagecheckerboard="0"
     inkscape:deskcolor="#d1d1d1"
     inkscape:zoom="1.1673759"
     inkscape:cx="173.89429"
     inkscape:cy="289.96658"
     inkscape:window-width="1920"
     inkscape:window-height="991"
     inkscape:window-x="2391"
     inkscape:window-y="-9"
     inkscape:window-maximized="1"
     inkscape:current-layer="svg1" />
  <path
     id="Y"
     style="fill:#000014;fill-opacity:1"
     d="M 0 -0.00033725 L 87.701172 137.67349 L 87.701172 224.94888 L 143.97852 224.94888 L 143.97852 137.67349 L 235.79297 -0.00033725 L 175.24219 -0.00033725 L 119.01758 88.646147 L 63.25 -0.00033725 L 0 -0.00033725 z M 347.44141 250.12466 L 347.44141 469.64615 L 512 469.64615 L 512 422.73794 L 512 422.73404 L 395.63867 422.73404 L 395.63867 250.12466 L 347.44141 250.12466 z M 87.701172 250.1774 L 87.701172 470.64615 L 135.00391 470.64615 L 135.00391 318.56998 L 184.50977 420.78873 L 221.74219 420.78873 L 272.93945 314.97623 L 272.93945 470.60123 L 318.31836 470.60123 L 318.31836 250.1774 L 256.35742 250.1774 L 201.38086 349.88248 L 149.02148 250.1774 L 87.701172 250.1774 z "
     transform="translate(0,20.558931)"
     inkscape:label="offBlack0" />
  <path
     id="A"
     fill="#cb171e"
     d="M 330.294,196.00992 H 228.433 l -20.717,50.024 H 162.61 L 257.99,21.084931 h 46.137 l 91.51,224.948989 h -48.2 l -17.144,-50.024 z m -16.92,-44.911 -31.226,-82.549989 -34.837,82.549989 z"
     style="fill:#00ff00;fill-opacity:1"
     inkscape:label="color0" />
</svg>
