<?xml version="1.0" encoding="UTF-8" standalone="no"?>
<svg
   viewBox="0 0 512 512"
   version="1.1"
   id="svg1"
   sodipodi:docname="yaml-icon-fr.svg"
   width="512"
   height="512"
   inkscape:version="1.3 (0e150ed6c4, 2023-07-21)"
   xmlns:inkscape="http://www.inkscape.org/namespaces/inkscape"
   xmlns:sodipodi="http://sodipodi.sourceforge.net/DTD/sodipodi-0.dtd"
   xmlns="http://www.w3.org/2000/svg"
   xmlns:svg="http://www.w3.org/2000/svg">
  <defs
     id="defs1" />
  <sodipodi:namedview
     id="namedview1"
     pagecolor="#ffffff"
     bordercolor="#000000"
     borderopacity="0.25"
     inkscape:showpageshadow="2"
     inkscape:pageopacity="0.0"
     inkscape:pagecheckerboard="0"
     inkscape:deskcolor="#d1d1d1"
     inkscape:zoom="1.1673759"
     inkscape:cx="173.03767"
     inkscape:cy="289.96658"
     inkscape:window-width="1920"
     inkscape:window-height="991"
     inkscape:window-x="-9"
     inkscape:window-y="-9"
     inkscape:window-maximized="1"
     inkscape:current-layer="svg1" />
  <polygon
     id="Y"
     points="63.25,0 119.018,88.646 175.243,0 235.793,0 143.978,137.674 143.978,224.949 87.702,224.949 87.702,137.674 0,0 "
     style="fill:#000014;fill-opacity:1"
     transform="translate(0,20.558931)" />
  <path
     id="A"
     fill="#cb171e"
     d="M 330.294,196.00992 H 228.433 l -20.717,50.024 H 162.61 L 257.99,21.084931 h 46.137 l 91.51,224.948989 h -48.2 l -17.144,-50.024 z m -16.92,-44.911 -31.226,-82.549989 -34.837,82.549989 z"
     style="fill:#0000ff;fill-opacity:1" />
  <polygon
     id="M"
     points="272.939,314.976 272.939,470.602 318.318,470.602 318.318,250.177 256.358,250.177 201.381,349.883 149.021,250.177 87.701,250.177 87.701,470.647 135.004,470.647 135.004,318.569 184.509,420.789 221.743,420.789 "
     style="fill:#000014;fill-opacity:1"
     transform="translate(0,20.558931)" />
  <polygon
     id="L"
     points="512,422.737 512,422.735 395.638,422.735 395.638,250.125 347.442,250.125 347.442,469.647 512,469.647 "
     style="fill:#000014;fill-opacity:1"
     transform="translate(0,20.558931)" />
</svg>
